<svg id="svg" version="1.1" xmlns="http://www.w3.org/2000/svg" xmlns:xlink="http://www.w3.org/1999/xlink" width="400" height="400" viewBox="0, 0, 400,400"><g id="svgg"><path id="path0" d="M350.980 68.761 C 350.771 68.960,350.257 69.185,349.838 69.261 C 349.419 69.338,349.020 69.670,348.952 70.000 C 348.885 70.330,348.759 70.960,348.672 71.400 C 348.553 72.004,348.211 72.191,347.274 72.165 C 346.591 72.145,346.131 72.288,346.251 72.482 C 346.371 72.676,346.296 73.052,346.086 73.318 C 345.875 73.583,345.751 74.095,345.809 74.456 C 345.887 74.930,345.514 75.176,344.458 75.345 C 343.238 75.540,342.990 75.747,342.941 76.615 C 342.874 77.776,342.713 78.022,341.937 78.146 C 340.837 78.321,340.073 79.030,339.938 80.000 C 339.840 80.708,339.513 81.040,338.816 81.139 C 337.653 81.303,336.825 82.292,337.017 83.289 C 337.108 83.762,336.894 84.017,336.377 84.050 C 335.092 84.133,334.880 84.186,334.555 84.512 C 334.384 84.683,334.203 85.102,334.153 85.443 C 333.959 86.759,333.617 87.108,332.271 87.360 C 331.504 87.504,330.772 87.896,330.643 88.232 C 330.498 88.610,330.575 88.739,330.844 88.573 C 331.140 88.390,331.132 88.580,330.820 89.163 C 330.567 89.636,330.189 89.917,329.981 89.788 C 329.373 89.412,328.210 90.513,328.091 91.575 C 327.960 92.757,328.027 92.690,326.800 92.861 C 325.611 93.026,325.214 93.484,325.206 94.700 C 325.203 95.195,325.020 95.623,324.800 95.650 C 324.373 95.703,323.789 95.839,323.300 95.997 C 323.135 96.051,322.842 96.066,322.649 96.030 C 322.456 95.995,322.394 96.334,322.512 96.784 C 322.647 97.301,322.569 97.505,322.300 97.338 C 322.024 97.168,321.957 97.394,322.110 97.979 C 322.316 98.765,322.220 98.859,321.373 98.697 C 320.838 98.595,320.400 98.666,320.400 98.855 C 320.400 99.045,320.109 99.200,319.753 99.200 C 319.316 99.200,319.171 99.445,319.304 99.956 C 319.569 100.968,319.110 101.626,318.087 101.703 C 317.302 101.763,316.776 102.446,316.256 104.081 C 316.120 104.508,315.737 104.703,315.228 104.605 C 314.782 104.519,314.311 104.621,314.181 104.831 C 314.051 105.041,313.755 105.096,313.522 104.952 C 313.246 104.781,313.156 105.174,313.263 106.085 C 313.400 107.266,313.316 107.451,312.713 107.293 C 312.321 107.191,312.000 107.287,312.000 107.507 C 312.000 107.727,311.634 108.002,311.186 108.120 C 310.562 108.283,310.416 108.574,310.560 109.366 C 310.698 110.132,310.573 110.412,310.074 110.446 C 309.703 110.472,309.150 110.517,308.845 110.546 C 308.283 110.601,307.836 111.224,307.441 112.500 C 307.322 112.885,306.881 113.200,306.462 113.200 C 305.524 113.200,304.863 113.949,304.670 115.231 C 304.570 115.895,304.222 116.244,303.562 116.338 C 302.216 116.532,301.551 117.178,301.685 118.161 C 301.767 118.760,301.555 119.035,300.942 119.122 C 299.913 119.269,298.613 120.612,298.605 121.536 C 298.602 121.994,298.266 122.193,297.525 122.179 C 296.934 122.167,296.539 122.302,296.649 122.479 C 296.758 122.655,296.657 122.800,296.424 122.800 C 296.191 122.800,296.000 123.239,296.000 123.776 C 296.000 124.897,295.683 125.169,294.236 125.289 C 293.666 125.336,293.173 125.560,293.139 125.787 C 293.106 126.014,293.036 126.380,292.985 126.600 C 292.934 126.820,292.872 164.305,292.846 209.900 L 292.800 292.800 210.100 292.847 C 125.522 292.896,125.422 292.897,125.345 294.100 C 125.320 294.485,125.278 294.973,125.250 295.185 C 125.223 295.396,124.505 295.756,123.655 295.985 C 122.318 296.345,122.116 296.550,122.155 297.501 C 122.187 298.274,122.003 298.602,121.536 298.605 C 120.612 298.613,119.269 299.913,119.122 300.942 C 119.044 301.493,118.713 301.800,118.200 301.800 C 117.010 301.800,116.400 302.335,116.400 303.377 C 116.400 304.216,116.120 304.437,114.400 304.952 C 113.681 305.168,113.200 305.755,113.200 306.418 C 113.200 306.917,112.720 307.390,111.838 307.758 C 111.089 308.071,110.488 308.569,110.501 308.864 C 110.575 310.469,110.390 310.745,109.366 310.560 C 108.574 310.416,108.283 310.562,108.120 311.186 C 108.002 311.634,107.727 312.000,107.507 312.000 C 107.287 312.000,107.191 312.321,107.293 312.713 C 107.451 313.316,107.266 313.400,106.085 313.263 C 105.174 313.156,104.781 313.246,104.952 313.522 C 105.096 313.755,105.043 314.050,104.834 314.179 C 104.626 314.308,104.536 314.860,104.635 315.407 C 104.784 316.223,104.654 316.402,103.908 316.413 C 103.094 316.424,101.146 317.513,101.573 317.717 C 102.330 318.080,101.124 319.679,100.224 319.507 C 99.531 319.374,99.200 319.487,99.200 319.855 C 99.200 320.155,99.037 320.400,98.837 320.400 C 98.638 320.400,98.569 320.760,98.684 321.200 C 98.846 321.819,98.696 322.000,98.023 322.000 C 97.544 322.000,97.254 322.163,97.377 322.363 C 97.500 322.562,97.233 322.629,96.784 322.512 C 96.334 322.394,95.995 322.456,96.030 322.649 C 96.066 322.842,96.051 323.135,95.997 323.300 C 95.839 323.789,95.703 324.373,95.650 324.800 C 95.623 325.020,95.195 325.203,94.700 325.206 C 93.484 325.214,93.026 325.611,92.861 326.800 C 92.690 328.027,92.757 327.960,91.575 328.091 C 90.513 328.210,89.412 329.373,89.788 329.981 C 89.917 330.189,89.636 330.567,89.163 330.820 C 88.580 331.132,88.390 331.140,88.573 330.844 C 88.739 330.575,88.610 330.498,88.232 330.643 C 87.896 330.772,87.504 331.504,87.360 332.271 C 87.108 333.617,86.759 333.959,85.443 334.153 C 85.102 334.203,84.683 334.384,84.512 334.555 C 84.186 334.880,84.133 335.092,84.050 336.377 C 84.017 336.894,83.762 337.108,83.289 337.017 C 82.292 336.825,81.303 337.653,81.139 338.816 C 81.040 339.513,80.708 339.840,80.000 339.938 C 79.030 340.073,78.321 340.837,78.146 341.937 C 78.022 342.713,77.776 342.874,76.615 342.941 C 75.747 342.990,75.540 343.238,75.345 344.458 C 75.176 345.514,74.930 345.887,74.456 345.809 C 74.095 345.751,73.583 345.875,73.318 346.086 C 73.052 346.296,72.676 346.371,72.482 346.251 C 72.288 346.131,72.145 346.591,72.165 347.274 C 72.190 348.152,71.996 348.556,71.500 348.657 C 71.115 348.736,70.485 348.862,70.100 348.938 C 69.715 349.014,69.336 349.419,69.257 349.838 C 69.178 350.257,68.908 350.860,68.657 351.177 C 68.305 351.621,68.315 351.684,68.700 351.453 C 69.145 351.186,69.327 351.976,69.170 353.484 C 69.088 354.272,80.615 354.344,212.501 354.372 L 354.402 354.402 354.372 212.501 C 354.344 80.615,354.272 69.088,353.484 69.170 C 352.171 69.307,351.194 69.133,351.400 68.800 C 351.708 68.302,351.485 68.281,350.980 68.761 " stroke="none" fill="#FFF" fill-rule="evenodd"></path><path id="path1" d="M45.699 182.299 L 45.800 319.000 48.364 319.121 C 51.160 319.252,51.583 318.988,51.594 317.100 C 51.599 316.111,51.741 316.000,53.000 316.000 C 54.333 316.000,54.400 315.933,54.400 314.600 C 54.400 313.267,54.467 313.200,55.800 313.200 C 57.133 313.200,57.200 313.133,57.200 311.800 C 57.200 310.533,57.307 310.400,58.320 310.400 C 59.741 310.400,60.400 309.741,60.400 308.320 C 60.400 307.307,60.533 307.200,61.800 307.200 C 63.133 307.200,63.200 307.133,63.200 305.800 C 63.200 304.467,63.267 304.400,64.600 304.400 C 65.933 304.400,66.000 304.333,66.000 303.000 C 66.000 301.786,66.128 301.600,66.967 301.600 C 68.704 301.600,69.200 301.191,69.200 299.757 C 69.200 298.473,69.275 298.400,70.600 298.400 C 71.933 298.400,72.000 298.333,72.000 297.000 C 72.000 295.667,72.067 295.600,73.400 295.600 C 74.733 295.600,74.800 295.533,74.800 294.200 C 74.800 292.933,74.907 292.800,75.920 292.800 C 77.341 292.800,78.000 292.141,78.000 290.720 C 78.000 289.707,78.133 289.600,79.400 289.600 C 80.733 289.600,80.800 289.533,80.800 288.200 C 80.800 286.986,80.928 286.800,81.767 286.800 C 83.427 286.800,84.000 286.378,84.000 285.157 C 84.000 284.216,84.172 284.000,84.920 284.000 C 86.149 284.000,86.800 283.280,86.800 281.920 C 86.800 280.907,86.933 280.800,88.200 280.800 C 89.533 280.800,89.600 280.733,89.600 279.400 C 89.600 278.133,89.707 278.000,90.720 278.000 C 92.141 278.000,92.800 277.341,92.800 275.920 C 92.800 274.907,92.933 274.800,94.200 274.800 L 95.600 274.800 95.600 185.200 L 95.600 95.600 185.200 95.600 L 274.800 95.600 274.800 94.200 C 274.800 92.986,274.928 92.800,275.767 92.800 C 277.504 92.800,278.000 92.391,278.000 90.957 C 278.000 89.673,278.075 89.600,279.400 89.600 C 280.729 89.600,280.800 89.530,280.800 88.224 C 280.800 86.923,280.881 86.842,282.300 86.724 C 283.663 86.611,283.811 86.484,283.924 85.324 C 284.031 84.212,284.212 84.031,285.324 83.924 C 286.484 83.811,286.611 83.663,286.724 82.300 C 286.842 80.881,286.923 80.800,288.224 80.800 C 289.530 80.800,289.600 80.729,289.600 79.400 C 289.600 78.075,289.673 78.000,290.957 78.000 C 292.391 78.000,292.800 77.504,292.800 75.767 C 292.800 74.928,292.986 74.800,294.200 74.800 C 295.533 74.800,295.600 74.733,295.600 73.400 C 295.600 72.067,295.667 72.000,297.000 72.000 C 298.333 72.000,298.400 71.933,298.400 70.600 C 298.400 69.275,298.473 69.200,299.757 69.200 C 301.191 69.200,301.600 68.704,301.600 66.967 C 301.600 66.128,301.786 66.000,303.000 66.000 C 304.333 66.000,304.400 65.933,304.400 64.600 C 304.400 63.267,304.467 63.200,305.800 63.200 C 307.133 63.200,307.200 63.133,307.200 61.800 C 307.200 60.533,307.307 60.400,308.320 60.400 C 309.741 60.400,310.400 59.741,310.400 58.320 C 310.400 57.307,310.533 57.200,311.800 57.200 C 313.133 57.200,313.200 57.133,313.200 55.800 C 313.200 54.467,313.267 54.400,314.600 54.400 C 315.933 54.400,316.000 54.333,316.000 53.000 C 316.000 51.741,316.111 51.599,317.100 51.594 C 318.988 51.583,319.252 51.160,319.121 48.364 L 319.000 45.800 182.299 45.699 L 45.599 45.599 45.699 182.299 M350.800 67.084 C 350.800 67.567,350.680 67.598,350.236 67.230 C 349.803 66.871,349.602 66.874,349.374 67.242 C 349.196 67.530,349.245 67.619,349.496 67.464 C 349.727 67.321,350.019 67.474,350.146 67.802 C 350.303 68.211,350.119 68.400,349.564 68.400 C 349.097 68.400,348.863 68.579,349.013 68.822 C 349.187 69.102,349.592 69.035,350.223 68.622 C 351.385 67.860,352.256 67.828,352.680 68.530 C 353.155 69.317,354.416 69.708,354.138 68.982 C 354.016 68.664,353.774 68.493,353.600 68.600 C 353.196 68.850,352.722 67.650,353.028 67.154 C 353.156 66.948,353.111 66.806,352.930 66.837 C 352.748 66.869,352.510 66.860,352.400 66.817 C 351.458 66.450,350.800 66.560,350.800 67.084 M346.911 70.049 C 346.664 70.296,346.569 70.775,346.699 71.114 C 346.871 71.562,346.780 71.642,346.368 71.407 C 345.911 71.146,345.896 71.187,346.295 71.616 C 346.703 72.056,346.966 71.984,347.799 71.201 C 348.549 70.496,348.679 70.170,348.304 69.932 C 347.630 69.504,347.440 69.520,346.911 70.049 M343.871 73.522 C 342.869 74.628,343.044 75.225,344.339 75.126 C 345.273 75.055,345.471 74.861,345.439 74.052 C 345.389 72.795,344.730 72.572,343.871 73.522 M341.023 76.375 C 340.178 77.309,340.508 78.015,341.741 77.913 C 342.420 77.857,342.663 77.562,342.727 76.719 C 342.829 75.390,342.056 75.234,341.023 76.375 M338.705 78.829 C 338.323 79.052,337.810 79.608,337.565 80.065 C 337.245 80.663,337.244 80.820,337.560 80.625 C 337.802 80.475,338.000 80.550,338.000 80.790 C 338.000 81.103,338.227 81.107,338.795 80.803 C 339.305 80.530,339.560 80.024,339.507 79.389 C 339.462 78.845,339.420 78.405,339.413 78.412 C 339.406 78.419,339.087 78.607,338.705 78.829 M335.071 82.322 C 334.069 83.428,334.244 84.025,335.539 83.926 C 336.473 83.855,336.671 83.661,336.639 82.852 C 336.589 81.595,335.930 81.372,335.071 82.322 M332.223 85.175 C 331.378 86.109,331.708 86.815,332.941 86.713 C 333.620 86.657,333.863 86.362,333.927 85.519 C 334.029 84.190,333.256 84.034,332.223 85.175 M151.698 194.098 L 151.800 236.600 194.302 236.702 L 236.804 236.804 236.702 194.302 L 236.600 151.800 194.098 151.698 L 151.596 151.596 151.698 194.098 M85.071 332.322 C 84.069 333.428,84.244 334.025,85.539 333.926 C 86.473 333.855,86.671 333.661,86.639 332.852 C 86.589 331.595,85.930 331.372,85.071 332.322 M82.223 335.175 C 81.378 336.109,81.708 336.815,82.941 336.713 C 83.620 336.657,83.863 336.362,83.927 335.519 C 84.029 334.190,83.256 334.034,82.223 335.175 M79.905 337.629 C 78.608 338.385,78.341 339.421,79.420 339.510 C 80.023 339.560,80.535 339.295,80.803 338.795 C 81.107 338.227,81.103 338.000,80.790 338.000 C 80.550 338.000,80.464 337.820,80.600 337.600 C 80.904 337.108,80.792 337.112,79.905 337.629 M76.271 341.122 C 75.269 342.228,75.444 342.825,76.739 342.726 C 77.673 342.655,77.871 342.461,77.839 341.652 C 77.789 340.395,77.130 340.172,76.271 341.122 M73.423 343.975 C 72.578 344.909,72.908 345.615,74.141 345.513 C 74.820 345.457,75.063 345.162,75.127 344.319 C 75.229 342.990,74.456 342.834,73.423 343.975 M71.407 346.368 C 71.645 346.784,71.561 346.871,71.095 346.692 C 70.242 346.365,69.432 347.371,69.890 348.189 C 70.194 348.733,70.373 348.681,71.196 347.804 C 71.983 346.967,72.056 346.703,71.616 346.295 C 71.187 345.896,71.146 345.911,71.407 346.368 M68.400 349.564 C 68.400 350.119,68.211 350.303,67.802 350.146 C 67.474 350.019,67.321 349.727,67.464 349.496 C 67.619 349.245,67.530 349.196,67.242 349.374 C 66.874 349.602,66.871 349.803,67.230 350.236 C 67.598 350.680,67.567 350.800,67.084 350.800 C 66.560 350.800,66.450 351.458,66.817 352.400 C 66.860 352.510,66.869 352.748,66.837 352.930 C 66.806 353.111,66.948 353.156,67.154 353.028 C 67.650 352.722,68.850 353.196,68.600 353.600 C 68.493 353.774,68.653 354.012,68.957 354.128 C 69.339 354.275,69.449 354.111,69.315 353.598 C 69.209 353.189,68.869 352.759,68.561 352.640 C 67.825 352.358,67.849 351.402,68.622 350.223 C 69.035 349.592,69.102 349.187,68.822 349.013 C 68.579 348.863,68.400 349.097,68.400 349.564 " stroke="none" fill="#d08f4c" fill-rule="evenodd"></path><path id="path2" d="M349.406 67.990 C 349.260 68.227,349.289 68.394,349.470 68.363 C 350.279 68.222,350.549 68.445,350.000 68.800 C 349.670 69.013,349.603 69.191,349.851 69.194 C 350.099 69.197,350.543 68.885,350.838 68.500 C 351.133 68.115,351.216 67.933,351.024 68.097 C 350.831 68.260,350.448 68.206,350.172 67.977 C 349.824 67.688,349.590 67.692,349.406 67.990 M351.600 68.600 C 351.181 69.105,351.252 69.195,352.051 69.168 C 352.573 69.151,352.774 69.046,352.498 68.934 C 352.221 68.823,352.097 68.567,352.221 68.366 C 352.584 67.779,352.144 67.945,351.600 68.600 M347.342 70.367 C 344.755 73.012,343.600 74.300,343.600 74.543 C 343.600 74.684,343.960 74.440,344.400 74.000 C 344.840 73.560,345.478 73.200,345.818 73.200 C 346.157 73.200,346.389 72.975,346.334 72.700 C 346.180 71.942,347.185 70.344,347.639 70.624 C 347.900 70.786,347.887 71.055,347.600 71.400 C 347.016 72.104,347.882 72.679,348.535 72.021 C 348.890 71.664,348.810 71.613,348.200 71.809 C 347.440 72.053,347.436 72.036,348.121 71.473 C 348.655 71.035,348.707 70.835,348.321 70.705 C 347.899 70.563,347.904 70.404,348.349 69.865 C 349.251 68.773,348.571 69.112,347.342 70.367 M340.098 77.888 C 339.821 77.987,339.689 78.220,339.803 78.405 C 339.918 78.591,339.648 78.858,339.204 78.999 C 338.760 79.140,338.135 79.738,337.814 80.327 C 337.494 80.917,337.225 81.281,337.216 81.136 C 337.194 80.771,334.800 82.904,334.800 83.289 C 334.800 83.460,335.167 83.233,335.615 82.785 C 336.063 82.337,336.601 82.077,336.811 82.207 C 337.021 82.336,337.493 81.813,337.860 81.044 C 338.239 80.248,339.021 79.440,339.672 79.170 C 341.284 78.503,341.675 77.322,340.098 77.888 M331.926 85.999 C 331.347 86.659,330.993 87.272,331.139 87.362 C 331.687 87.701,333.555 87.093,333.782 86.502 C 333.976 85.997,333.911 85.976,333.423 86.381 C 332.371 87.254,331.763 86.637,332.725 85.675 C 333.206 85.194,333.460 84.800,333.289 84.800 C 333.118 84.800,332.505 85.340,331.926 85.999 M327.500 91.585 C 326.657 92.407,326.609 92.800,327.353 92.800 C 327.658 92.800,328.011 92.403,328.137 91.917 C 328.432 90.792,328.355 90.752,327.500 91.585 M324.267 94.667 C 323.753 95.181,323.999 95.975,324.600 95.745 C 324.930 95.618,325.200 95.264,325.200 94.957 C 325.200 94.369,324.715 94.218,324.267 94.667 M322.000 96.551 C 322.000 96.854,321.730 97.326,321.400 97.600 C 320.577 98.283,320.648 98.800,321.563 98.800 C 322.147 98.800,322.272 98.598,322.100 97.937 C 321.955 97.385,322.027 97.169,322.300 97.338 C 322.568 97.504,322.648 97.305,322.516 96.801 C 322.275 95.878,322.000 95.745,322.000 96.551 M318.021 101.161 C 317.677 101.803,317.733 101.890,318.379 101.721 C 319.307 101.479,319.815 100.400,319.002 100.400 C 318.686 100.400,318.245 100.742,318.021 101.161 M315.810 102.903 C 314.681 104.756,314.683 104.746,315.477 104.630 C 315.875 104.572,316.262 104.181,316.339 103.762 C 316.415 103.343,316.640 102.829,316.839 102.620 C 317.277 102.159,317.311 101.599,316.900 101.603 C 316.735 101.604,316.244 102.189,315.810 102.903 M312.441 106.551 C 312.083 106.982,312.148 107.145,312.741 107.300 C 313.326 107.453,313.454 107.328,313.303 106.749 C 313.068 105.853,313.027 105.844,312.441 106.551 M295.747 123.069 C 295.623 123.562,295.615 124.198,295.729 124.483 C 295.843 124.767,295.951 124.533,295.968 123.961 C 295.989 123.296,296.324 122.770,296.900 122.498 L 297.800 122.073 296.886 122.123 C 296.296 122.155,295.892 122.490,295.747 123.069 M122.400 296.018 C 121.962 296.315,122.124 296.352,123.000 296.156 C 124.471 295.827,124.790 295.598,123.767 295.606 C 123.345 295.609,122.730 295.795,122.400 296.018 M106.441 312.551 C 106.083 312.982,106.148 313.145,106.741 313.300 C 107.326 313.453,107.454 313.328,107.303 312.749 C 107.068 311.853,107.027 311.844,106.441 312.551 M103.295 315.582 C 102.797 315.997,102.167 316.416,101.895 316.514 C 101.623 316.611,101.538 316.838,101.707 317.019 C 101.875 317.199,102.226 317.134,102.487 316.873 C 102.747 316.613,103.363 316.400,103.855 316.400 C 104.504 316.400,104.734 316.180,104.690 315.600 C 104.616 314.622,104.448 314.620,103.295 315.582 M100.521 318.640 C 99.406 319.675,99.405 319.679,100.356 319.540 C 100.903 319.460,101.455 319.014,101.644 318.500 C 102.068 317.345,101.892 317.367,100.521 318.640 M97.783 321.228 C 97.637 321.463,97.145 321.794,96.689 321.963 C 95.862 322.269,95.862 322.271,96.730 322.498 C 97.209 322.623,97.500 322.562,97.377 322.363 C 97.254 322.163,97.523 322.000,97.976 322.000 C 98.442 322.000,98.800 321.739,98.800 321.400 C 98.800 320.706,98.171 320.600,97.783 321.228 M94.667 324.267 C 94.218 324.715,94.369 325.200,94.957 325.200 C 95.264 325.200,95.618 324.930,95.745 324.600 C 95.975 323.999,95.181 323.753,94.667 324.267 M91.440 327.661 C 90.784 328.428,90.778 328.494,91.384 328.261 C 91.759 328.118,92.231 328.000,92.433 328.000 C 92.635 328.000,92.800 327.730,92.800 327.400 C 92.800 326.558,92.303 326.653,91.440 327.661 M85.900 331.988 C 85.295 332.561,84.800 333.158,84.800 333.315 C 84.800 333.472,85.194 333.206,85.675 332.725 C 86.637 331.763,87.254 332.371,86.381 333.423 C 85.976 333.911,85.997 333.976,86.502 333.782 C 87.150 333.534,87.730 331.561,87.269 331.173 C 87.121 331.048,86.505 331.415,85.900 331.988 M81.925 336.000 C 81.346 336.660,80.991 337.207,81.136 337.216 C 81.281 337.225,80.917 337.494,80.327 337.814 C 79.738 338.135,79.140 338.760,78.999 339.204 C 78.858 339.648,78.594 339.920,78.413 339.808 C 78.232 339.696,77.983 339.868,77.859 340.189 C 77.377 341.446,78.430 341.164,79.046 339.871 C 79.432 339.063,80.263 338.232,81.071 337.846 C 81.826 337.487,82.336 337.021,82.207 336.811 C 82.077 336.601,82.337 336.063,82.785 335.615 C 83.233 335.167,83.460 334.800,83.289 334.800 C 83.118 334.800,82.504 335.340,81.925 336.000 M73.407 344.534 C 73.070 345.047,72.331 345.716,71.764 346.019 C 71.196 346.323,70.350 347.118,69.882 347.786 C 69.154 348.825,69.139 348.914,69.781 348.400 C 70.375 347.924,70.566 347.908,70.705 348.321 C 70.835 348.707,71.035 348.655,71.473 348.121 C 72.036 347.436,72.053 347.440,71.809 348.200 C 71.613 348.810,71.664 348.890,72.021 348.535 C 72.679 347.882,72.104 347.016,71.400 347.600 C 71.055 347.887,70.786 347.900,70.624 347.639 C 70.344 347.185,71.942 346.180,72.700 346.334 C 72.975 346.389,73.200 346.157,73.200 345.818 C 73.200 345.478,73.560 344.840,74.000 344.400 C 74.440 343.960,74.624 343.600,74.409 343.600 C 74.194 343.600,73.743 344.020,73.407 344.534 M67.817 349.572 C 67.691 349.777,67.773 350.060,68.000 350.200 C 68.227 350.340,68.286 350.668,68.130 350.928 C 67.968 351.197,68.138 351.164,68.523 350.851 C 68.895 350.549,69.197 350.099,69.194 349.851 C 69.191 349.603,69.013 349.670,68.800 350.000 C 68.451 350.540,68.228 350.290,68.353 349.500 C 68.419 349.081,68.093 349.125,67.817 349.572 M68.349 351.877 C 68.047 352.249,68.010 352.428,68.266 352.274 C 68.522 352.121,68.823 352.221,68.934 352.498 C 69.046 352.774,69.151 352.595,69.168 352.100 C 69.206 351.022,69.072 350.986,68.349 351.877 " stroke="none" fill="#FFF" fill-rule="evenodd"></path><path id="path3" d="" stroke="none" fill="#FFF" fill-rule="evenodd"></path><path id="path4" d="M330.095 87.895 C 329.081 88.246,328.752 89.494,329.615 89.720 C 330.116 89.851,330.546 89.674,330.777 89.242 C 331.211 88.433,330.813 87.646,330.095 87.895 M88.353 329.647 C 87.691 330.309,87.621 330.566,88.031 330.819 C 88.856 331.329,89.960 330.534,89.717 329.605 C 89.455 328.604,89.394 328.606,88.353 329.647 " stroke="none" fill="#FFF" fill-rule="evenodd"></path></g></svg>