<svg id="svg" version="1.1" xmlns="http://www.w3.org/2000/svg" xmlns:xlink="http://www.w3.org/1999/xlink" width="400" height="400" viewBox="0, 0, 400,400"><g id="svgg"><path id="path0" d="M48.800 145.200 C 48.800 198.220,48.905 241.600,49.034 241.600 C 49.319 241.600,53.318 237.886,54.955 236.100 C 55.611 235.385,56.483 234.800,56.894 234.800 C 57.372 234.800,57.855 234.287,58.237 233.373 C 58.633 232.426,59.230 231.808,60.016 231.534 C 60.667 231.307,61.200 230.883,61.200 230.590 C 61.200 229.892,68.186 222.800,68.873 222.800 C 69.166 222.800,69.639 222.270,69.926 221.623 C 70.212 220.976,70.978 220.211,71.628 219.924 C 72.278 219.636,72.922 219.040,73.059 218.600 C 73.368 217.612,79.898 211.200,80.596 211.200 C 80.875 211.200,81.315 210.689,81.574 210.063 C 81.838 209.427,82.650 208.638,83.422 208.270 C 84.180 207.909,84.800 207.372,84.800 207.078 C 84.800 206.785,85.565 205.837,86.500 204.972 C 87.435 204.107,88.969 202.545,89.908 201.500 C 90.848 200.455,91.797 199.600,92.018 199.600 C 93.118 199.600,93.200 195.877,93.200 145.854 C 93.200 106.181,93.312 94.048,93.680 93.680 C 94.048 93.312,106.171 93.199,145.780 93.195 C 199.433 93.189,199.020 93.198,199.418 91.944 C 199.552 91.520,200.588 90.325,201.720 89.287 C 202.852 88.249,204.311 86.815,204.963 86.100 C 205.614 85.385,206.472 84.800,206.868 84.800 C 207.317 84.800,207.815 84.260,208.188 83.368 C 208.581 82.427,209.200 81.779,209.993 81.480 C 210.657 81.230,211.200 80.794,211.200 80.512 C 211.200 79.835,218.207 72.800,218.881 72.800 C 219.169 72.800,219.639 72.270,219.926 71.623 C 220.212 70.976,220.978 70.211,221.628 69.924 C 222.278 69.636,222.922 69.040,223.059 68.600 C 223.368 67.612,229.898 61.200,230.596 61.200 C 230.875 61.200,231.315 60.689,231.574 60.063 C 231.838 59.427,232.650 58.638,233.422 58.270 C 234.180 57.909,234.800 57.368,234.800 57.068 C 234.800 56.768,235.565 55.812,236.500 54.944 C 238.362 53.214,242.000 49.270,242.000 48.981 C 242.000 48.882,198.530 48.800,145.400 48.800 L 48.800 48.800 48.800 145.200 M347.200 161.489 C 345.330 163.356,343.402 165.150,342.916 165.477 C 342.429 165.804,341.925 166.407,341.795 166.816 C 341.665 167.225,340.938 167.944,340.179 168.413 C 339.421 168.882,338.800 169.436,338.800 169.645 C 338.800 169.964,333.829 174.956,317.600 190.932 C 316.390 192.123,313.741 194.814,311.713 196.911 C 309.685 199.009,307.795 200.802,307.513 200.896 C 307.101 201.033,306.961 211.420,306.800 253.833 L 306.600 306.600 254.033 306.800 C 207.914 306.975,201.442 307.073,201.268 307.597 C 201.029 308.314,194.504 314.778,193.072 315.716 C 192.516 316.080,191.949 316.730,191.813 317.160 C 191.676 317.590,190.943 318.309,190.182 318.757 C 189.422 319.206,188.800 319.769,188.800 320.007 C 188.800 320.246,184.615 324.566,179.500 329.607 C 174.385 334.648,169.792 339.183,169.293 339.686 C 168.019 340.970,167.532 341.456,166.480 342.493 C 165.974 342.992,163.942 345.108,161.965 347.197 L 158.370 350.993 159.544 351.297 C 160.190 351.465,203.622 351.556,256.059 351.501 L 351.400 351.400 351.515 256.400 C 351.624 166.974,351.565 157.928,350.875 158.048 C 350.724 158.075,349.070 159.623,347.200 161.489 M304.098 270.498 L 304.000 303.997 252.500 304.100 L 201.000 304.203 252.513 304.302 C 293.427 304.380,304.064 304.297,304.216 303.900 C 304.321 303.625,304.359 288.460,304.301 270.200 L 304.195 237.000 304.098 270.498 " stroke="none" fill="#d08f4c" fill-rule="evenodd"></path><path id="path1" d="M46.000 146.026 C 46.000 207.585,46.144 246.322,46.375 246.754 C 47.004 247.929,50.558 247.696,50.732 246.469 C 50.818 245.861,51.059 245.614,51.428 245.755 C 51.790 245.894,52.080 245.619,52.239 244.986 C 52.393 244.373,52.773 244.000,53.243 244.000 C 53.719 244.000,54.000 243.719,54.000 243.243 C 54.000 242.773,54.373 242.393,54.986 242.239 C 55.619 242.080,55.894 241.790,55.755 241.428 C 55.614 241.059,55.861 240.818,56.469 240.732 C 57.098 240.643,57.362 240.373,57.282 239.900 C 57.218 239.515,57.410 239.200,57.710 239.200 C 58.010 239.200,58.647 238.750,59.125 238.200 C 59.603 237.650,60.176 237.200,60.397 237.200 C 60.619 237.200,60.800 236.930,60.800 236.600 C 60.800 236.270,61.067 236.000,61.392 236.000 C 61.718 236.000,62.098 235.550,62.236 235.000 C 62.393 234.374,62.770 234.000,63.243 234.000 C 63.733 234.000,64.000 233.718,64.000 233.200 C 64.000 232.655,64.267 232.400,64.837 232.400 C 65.325 232.400,65.758 232.081,65.874 231.637 C 65.984 231.217,66.417 230.784,66.837 230.674 C 67.257 230.565,67.600 230.209,67.600 229.884 C 67.600 229.559,67.960 229.199,68.400 229.084 C 68.840 228.969,69.200 228.609,69.200 228.284 C 69.200 227.959,69.560 227.599,70.000 227.484 C 70.440 227.369,70.800 226.988,70.800 226.637 C 70.800 226.287,71.067 226.000,71.392 226.000 C 71.718 226.000,72.098 225.550,72.236 225.000 C 72.393 224.374,72.770 224.000,73.243 224.000 C 73.719 224.000,74.000 223.719,74.000 223.243 C 74.000 222.770,74.374 222.393,75.000 222.236 C 75.550 222.098,76.000 221.739,76.000 221.439 C 76.000 221.139,76.360 220.799,76.800 220.684 C 77.240 220.569,77.600 220.209,77.600 219.884 C 77.600 219.559,77.960 219.199,78.400 219.084 C 78.874 218.960,79.200 218.538,79.200 218.050 C 79.200 217.467,79.383 217.295,79.824 217.465 C 80.241 217.624,80.522 217.421,80.671 216.852 C 80.793 216.383,81.139 216.000,81.439 216.000 C 81.739 216.000,82.098 215.550,82.236 215.000 C 82.393 214.374,82.770 214.000,83.243 214.000 C 83.733 214.000,84.000 213.718,84.000 213.200 C 84.000 212.667,84.267 212.400,84.800 212.400 C 85.265 212.400,85.600 212.133,85.600 211.763 C 85.600 211.412,85.960 211.031,86.400 210.916 C 86.840 210.801,87.200 210.453,87.200 210.143 C 87.200 209.834,87.650 209.409,88.200 209.200 C 88.750 208.991,89.200 208.557,89.200 208.237 C 89.200 207.916,89.541 207.546,89.957 207.414 C 90.373 207.282,90.808 206.814,90.922 206.375 C 91.037 205.936,91.367 205.627,91.656 205.689 C 91.945 205.750,92.243 205.395,92.318 204.900 C 92.406 204.325,92.734 204.000,93.228 204.000 C 93.733 204.000,94.000 203.724,94.000 203.200 C 94.000 202.682,94.267 202.400,94.757 202.400 C 95.991 202.400,95.971 203.242,95.993 148.730 C 96.004 119.868,96.066 96.201,96.130 96.137 C 96.194 96.073,119.996 95.971,149.023 95.910 L 201.800 95.800 202.195 94.900 C 202.412 94.405,202.907 94.000,203.295 94.000 C 203.725 94.000,204.000 93.699,204.000 93.228 C 204.000 92.734,204.325 92.406,204.900 92.318 C 205.395 92.243,205.754 91.956,205.697 91.682 C 205.640 91.407,206.042 91.012,206.589 90.804 C 207.251 90.552,207.506 90.220,207.350 89.813 C 207.206 89.439,207.337 89.200,207.685 89.200 C 207.999 89.200,208.647 88.750,209.125 88.200 C 209.603 87.650,210.176 87.200,210.397 87.200 C 210.619 87.200,210.800 86.930,210.800 86.600 C 210.800 86.270,211.067 86.000,211.392 86.000 C 211.718 86.000,212.098 85.550,212.236 85.000 C 212.393 84.374,212.770 84.000,213.243 84.000 C 213.733 84.000,214.000 83.718,214.000 83.200 C 214.000 82.655,214.267 82.400,214.837 82.400 C 215.338 82.400,215.759 82.079,215.884 81.600 C 215.999 81.160,216.359 80.800,216.684 80.800 C 217.009 80.800,217.365 80.457,217.474 80.037 C 217.584 79.617,218.017 79.184,218.437 79.074 C 218.896 78.954,219.200 78.524,219.200 77.995 C 219.200 77.354,219.373 77.181,219.837 77.359 C 220.256 77.520,220.542 77.342,220.674 76.839 C 220.784 76.418,221.217 75.984,221.637 75.874 C 222.081 75.758,222.400 75.325,222.400 74.837 C 222.400 74.267,222.655 74.000,223.200 74.000 C 223.718 74.000,224.000 73.733,224.000 73.243 C 224.000 72.770,224.374 72.393,225.000 72.236 C 225.550 72.098,226.000 71.718,226.000 71.392 C 226.000 71.067,226.287 70.800,226.637 70.800 C 226.988 70.800,227.365 70.457,227.474 70.037 C 227.584 69.617,228.017 69.184,228.437 69.074 C 228.877 68.959,229.200 68.525,229.200 68.050 C 229.200 67.467,229.383 67.295,229.824 67.465 C 230.241 67.624,230.522 67.421,230.671 66.852 C 230.793 66.383,231.139 66.000,231.439 66.000 C 231.739 66.000,232.098 65.550,232.236 65.000 C 232.393 64.374,232.770 64.000,233.243 64.000 C 233.733 64.000,234.000 63.718,234.000 63.200 C 234.000 62.683,234.267 62.400,234.753 62.400 C 235.170 62.400,235.600 62.043,235.716 61.600 C 235.831 61.160,236.212 60.800,236.563 60.800 C 236.913 60.800,237.200 60.526,237.200 60.190 C 237.200 59.855,237.650 59.409,238.200 59.200 C 238.750 58.991,239.200 58.557,239.200 58.237 C 239.200 57.916,239.541 57.546,239.957 57.414 C 240.373 57.282,240.808 56.814,240.922 56.375 C 241.037 55.936,241.367 55.627,241.656 55.689 C 241.945 55.750,242.243 55.395,242.318 54.900 C 242.406 54.325,242.734 54.000,243.228 54.000 C 243.724 54.000,244.000 53.724,244.000 53.228 C 244.000 52.734,244.325 52.406,244.900 52.318 C 245.395 52.243,245.753 51.955,245.696 51.679 C 245.639 51.403,245.909 51.061,246.296 50.918 C 247.626 50.427,248.060 48.407,247.186 46.774 C 246.778 46.012,245.225 46.000,146.386 46.000 L 46.000 46.000 46.000 146.026 M291.150 46.200 C 291.123 46.310,291.070 46.535,291.034 46.700 C 290.878 47.406,288.386 49.638,288.011 49.407 C 287.780 49.264,287.600 49.514,287.600 49.976 C 287.600 50.429,287.409 50.800,287.176 50.800 C 286.943 50.800,286.883 51.011,287.042 51.268 C 287.238 51.585,287.111 51.651,286.645 51.473 C 286.267 51.328,286.056 51.367,286.176 51.561 C 286.295 51.754,285.945 52.206,285.397 52.565 C 284.848 52.925,284.400 53.484,284.400 53.809 C 284.400 54.134,284.040 54.400,283.600 54.400 C 283.067 54.400,282.800 54.667,282.800 55.200 C 282.800 55.912,282.391 56.183,281.514 56.052 C 281.357 56.029,281.341 56.322,281.478 56.705 C 281.615 57.087,281.586 57.273,281.414 57.117 C 281.242 56.961,280.749 57.231,280.320 57.717 C 279.890 58.203,279.671 58.347,279.831 58.038 C 280.024 57.669,279.966 57.574,279.662 57.762 C 279.408 57.919,279.200 58.407,279.200 58.847 C 279.200 59.287,279.020 59.536,278.800 59.400 C 278.580 59.264,278.400 59.523,278.400 59.976 C 278.400 60.631,278.145 60.800,277.157 60.800 C 276.205 60.800,275.969 60.943,276.150 61.413 C 276.306 61.820,276.052 62.152,275.392 62.403 C 274.847 62.610,274.400 63.059,274.400 63.400 C 274.400 63.741,273.932 64.198,273.359 64.415 C 272.702 64.665,272.399 65.021,272.537 65.381 C 272.679 65.750,272.447 65.994,271.878 66.075 C 271.395 66.144,270.995 66.380,270.989 66.600 C 270.976 67.121,267.121 70.976,266.600 70.989 C 266.380 70.995,266.144 71.395,266.075 71.878 C 265.994 72.447,265.750 72.679,265.381 72.537 C 265.025 72.401,264.670 72.689,264.436 73.305 C 264.230 73.847,263.688 74.388,263.231 74.508 C 262.723 74.641,262.400 75.051,262.400 75.563 C 262.400 76.023,262.265 76.379,262.100 76.353 C 261.291 76.225,260.771 76.449,260.830 76.900 C 260.975 78.020,260.759 78.400,259.976 78.400 C 259.523 78.400,259.264 78.580,259.400 78.800 C 259.536 79.020,259.287 79.200,258.847 79.200 C 258.407 79.200,257.919 79.408,257.762 79.662 C 257.574 79.966,257.669 80.024,258.038 79.831 C 258.347 79.671,258.203 79.890,257.717 80.320 C 257.231 80.749,256.961 81.242,257.117 81.414 C 257.273 81.586,257.087 81.615,256.705 81.478 C 256.322 81.341,256.029 81.357,256.052 81.514 C 256.183 82.391,255.912 82.800,255.200 82.800 C 254.667 82.800,254.400 83.067,254.400 83.600 C 254.400 84.040,254.140 84.400,253.823 84.400 C 253.505 84.400,253.010 84.727,252.723 85.126 C 252.435 85.526,251.883 85.971,251.496 86.115 C 251.109 86.260,250.839 86.603,250.896 86.879 C 250.953 87.155,250.592 87.443,250.094 87.519 C 249.596 87.595,249.295 87.829,249.425 88.040 C 249.687 88.464,247.196 91.021,246.666 90.871 C 246.482 90.819,246.236 91.142,246.119 91.589 C 246.002 92.035,245.653 92.400,245.343 92.400 C 245.034 92.400,244.618 92.825,244.421 93.345 C 244.223 93.865,243.688 94.388,243.231 94.508 C 242.774 94.627,242.400 94.991,242.400 95.316 C 242.400 95.641,242.035 96.002,241.589 96.119 C 241.142 96.236,240.819 96.482,240.871 96.666 C 241.027 97.217,238.455 99.681,238.011 99.407 C 237.780 99.264,237.600 99.514,237.600 99.976 C 237.600 100.429,237.409 100.800,237.176 100.800 C 236.943 100.800,236.883 101.011,237.042 101.268 C 237.238 101.585,237.111 101.651,236.645 101.473 C 236.267 101.328,236.056 101.367,236.176 101.561 C 236.295 101.754,235.945 102.206,235.397 102.565 C 234.848 102.925,234.400 103.484,234.400 103.809 C 234.400 104.134,234.040 104.400,233.600 104.400 C 233.067 104.400,232.800 104.667,232.800 105.200 C 232.800 105.912,232.391 106.183,231.514 106.052 C 231.357 106.029,231.341 106.322,231.478 106.705 C 231.615 107.087,231.586 107.273,231.414 107.117 C 231.242 106.961,230.749 107.231,230.320 107.717 C 229.890 108.203,229.671 108.347,229.831 108.038 C 230.024 107.669,229.966 107.574,229.662 107.762 C 229.408 107.919,229.200 108.407,229.200 108.847 C 229.200 109.287,229.020 109.536,228.800 109.400 C 228.580 109.264,228.400 109.523,228.400 109.976 C 228.400 110.631,228.145 110.800,227.157 110.800 C 226.205 110.800,225.969 110.943,226.150 111.413 C 226.306 111.820,226.052 112.152,225.392 112.403 C 224.847 112.610,224.400 113.059,224.400 113.400 C 224.400 113.741,223.932 114.198,223.359 114.415 C 222.702 114.665,222.399 115.021,222.537 115.381 C 222.679 115.750,222.447 115.994,221.878 116.075 C 221.395 116.144,220.995 116.380,220.989 116.600 C 220.976 117.121,217.121 120.976,216.600 120.989 C 216.380 120.995,216.144 121.395,216.075 121.878 C 215.994 122.447,215.750 122.679,215.381 122.537 C 215.021 122.399,214.665 122.702,214.415 123.359 C 214.198 123.932,213.741 124.400,213.400 124.400 C 213.059 124.400,212.610 124.847,212.403 125.392 C 212.152 126.052,211.820 126.306,211.413 126.150 C 210.943 125.969,210.800 126.205,210.800 127.157 C 210.800 128.145,210.631 128.400,209.976 128.400 C 209.523 128.400,209.264 128.580,209.400 128.800 C 209.536 129.020,209.287 129.200,208.847 129.200 C 208.407 129.200,207.919 129.408,207.762 129.662 C 207.574 129.966,207.669 130.024,208.038 129.831 C 208.347 129.671,208.203 129.890,207.717 130.320 C 207.231 130.749,206.961 131.242,207.117 131.414 C 207.273 131.586,207.087 131.615,206.705 131.478 C 206.322 131.341,206.029 131.357,206.052 131.514 C 206.183 132.391,205.912 132.800,205.200 132.800 C 204.667 132.800,204.400 133.067,204.400 133.600 C 204.400 134.040,204.140 134.400,203.823 134.400 C 203.505 134.400,203.010 134.727,202.723 135.126 C 202.435 135.526,201.883 135.971,201.496 136.115 C 201.109 136.260,200.839 136.603,200.896 136.879 C 200.953 137.155,200.592 137.443,200.094 137.519 C 199.596 137.595,199.295 137.829,199.425 138.040 C 199.687 138.464,197.196 141.021,196.666 140.871 C 196.482 140.819,196.236 141.142,196.119 141.589 C 196.002 142.035,195.653 142.400,195.343 142.400 C 195.034 142.400,194.618 142.825,194.421 143.345 C 194.223 143.865,193.688 144.388,193.231 144.508 C 192.774 144.627,192.400 144.991,192.400 145.316 C 192.400 145.641,192.035 146.002,191.589 146.119 C 191.142 146.236,190.819 146.482,190.871 146.666 C 191.027 147.217,188.455 149.681,188.011 149.407 C 187.780 149.264,187.600 149.514,187.600 149.976 C 187.600 150.429,187.409 150.800,187.176 150.800 C 186.943 150.800,186.883 151.011,187.042 151.268 C 187.238 151.585,187.111 151.651,186.645 151.473 C 186.267 151.328,186.056 151.367,186.176 151.561 C 186.295 151.754,185.945 152.206,185.397 152.565 C 184.848 152.925,184.400 153.484,184.400 153.809 C 184.400 154.134,184.040 154.400,183.600 154.400 C 183.067 154.400,182.800 154.667,182.800 155.200 C 182.800 155.912,182.391 156.183,181.514 156.052 C 181.357 156.029,181.341 156.322,181.478 156.705 C 181.615 157.087,181.586 157.273,181.414 157.117 C 181.242 156.961,180.749 157.231,180.320 157.717 C 179.890 158.203,179.671 158.347,179.831 158.038 C 180.024 157.669,179.966 157.574,179.662 157.762 C 179.408 157.919,179.200 158.407,179.200 158.847 C 179.200 159.287,179.020 159.536,178.800 159.400 C 178.580 159.264,178.400 159.523,178.400 159.976 C 178.400 160.631,178.145 160.800,177.157 160.800 C 176.205 160.800,175.969 160.943,176.150 161.413 C 176.306 161.820,176.052 162.152,175.392 162.403 C 174.847 162.610,174.400 163.059,174.400 163.400 C 174.400 163.741,173.932 164.198,173.359 164.415 C 172.702 164.665,172.399 165.021,172.537 165.381 C 172.679 165.750,172.447 165.994,171.878 166.075 C 171.395 166.144,170.995 166.380,170.989 166.600 C 170.984 166.820,170.084 167.895,168.989 168.989 C 167.895 170.084,166.820 170.984,166.600 170.989 C 166.380 170.995,166.144 171.395,166.075 171.878 C 165.994 172.447,165.750 172.679,165.381 172.537 C 165.025 172.401,164.670 172.689,164.436 173.305 C 164.230 173.847,163.688 174.388,163.231 174.508 C 162.723 174.641,162.400 175.051,162.400 175.563 C 162.400 176.023,162.265 176.379,162.100 176.353 C 161.291 176.225,160.771 176.449,160.830 176.900 C 160.975 178.020,160.759 178.400,159.976 178.400 C 159.523 178.400,159.264 178.580,159.400 178.800 C 159.536 179.020,159.287 179.200,158.847 179.200 C 158.407 179.200,157.919 179.408,157.762 179.662 C 157.574 179.966,157.669 180.024,158.038 179.831 C 158.347 179.671,158.203 179.890,157.717 180.320 C 157.231 180.749,156.961 181.242,157.117 181.414 C 157.273 181.586,157.087 181.615,156.705 181.478 C 156.322 181.341,156.029 181.357,156.052 181.514 C 156.183 182.391,155.912 182.800,155.200 182.800 C 154.667 182.800,154.400 183.067,154.400 183.600 C 154.400 184.040,154.140 184.400,153.823 184.400 C 153.505 184.400,153.010 184.727,152.723 185.126 C 152.435 185.526,151.883 185.971,151.496 186.115 C 151.109 186.260,150.839 186.603,150.896 186.879 C 150.953 187.155,150.592 187.443,150.094 187.519 C 149.596 187.595,149.295 187.829,149.425 188.040 C 149.687 188.464,147.196 191.021,146.666 190.871 C 146.482 190.819,146.236 191.142,146.119 191.589 C 146.002 192.035,145.653 192.400,145.343 192.400 C 145.034 192.400,144.618 192.825,144.421 193.345 C 144.223 193.865,143.688 194.388,143.231 194.508 C 142.774 194.627,142.400 194.991,142.400 195.316 C 142.400 195.641,142.035 196.002,141.589 196.119 C 141.142 196.236,140.819 196.482,140.871 196.666 C 141.027 197.217,138.455 199.681,138.011 199.407 C 137.780 199.264,137.600 199.514,137.600 199.976 C 137.600 200.429,137.409 200.800,137.176 200.800 C 136.943 200.800,136.883 201.011,137.042 201.268 C 137.238 201.585,137.111 201.651,136.645 201.473 C 136.267 201.328,136.056 201.367,136.176 201.561 C 136.295 201.754,135.945 202.206,135.397 202.565 C 134.848 202.925,134.400 203.484,134.400 203.809 C 134.400 204.134,134.040 204.400,133.600 204.400 C 133.067 204.400,132.800 204.667,132.800 205.200 C 132.800 205.912,132.391 206.183,131.514 206.052 C 131.357 206.029,131.341 206.322,131.478 206.705 C 131.615 207.087,131.586 207.273,131.414 207.117 C 131.242 206.961,130.749 207.231,130.320 207.717 C 129.890 208.203,129.671 208.347,129.831 208.038 C 130.024 207.669,129.966 207.574,129.662 207.762 C 129.408 207.919,129.200 208.407,129.200 208.847 C 129.200 209.287,129.020 209.536,128.800 209.400 C 128.580 209.264,128.400 209.523,128.400 209.976 C 128.400 210.631,128.145 210.800,127.157 210.800 C 126.205 210.800,125.969 210.943,126.150 211.413 C 126.306 211.820,126.052 212.152,125.392 212.403 C 124.847 212.610,124.400 213.059,124.400 213.400 C 124.400 213.741,123.932 214.198,123.359 214.415 C 122.702 214.665,122.399 215.021,122.537 215.381 C 122.679 215.750,122.447 215.994,121.878 216.075 C 121.395 216.144,120.995 216.380,120.989 216.600 C 120.976 217.121,117.121 220.976,116.600 220.989 C 116.380 220.995,116.144 221.395,116.075 221.878 C 115.994 222.447,115.750 222.679,115.381 222.537 C 115.025 222.401,114.670 222.689,114.436 223.305 C 114.230 223.847,113.688 224.388,113.231 224.508 C 112.723 224.641,112.400 225.051,112.400 225.563 C 112.400 226.023,112.265 226.379,112.100 226.353 C 111.291 226.225,110.771 226.449,110.830 226.900 C 110.975 228.020,110.759 228.400,109.976 228.400 C 109.523 228.400,109.264 228.580,109.400 228.800 C 109.536 229.020,109.287 229.200,108.847 229.200 C 108.407 229.200,107.919 229.408,107.762 229.662 C 107.574 229.966,107.669 230.024,108.038 229.831 C 108.347 229.671,108.203 229.890,107.717 230.320 C 107.231 230.749,106.961 231.242,107.117 231.414 C 107.273 231.586,107.087 231.615,106.705 231.478 C 106.322 231.341,106.029 231.357,106.052 231.514 C 106.183 232.391,105.912 232.800,105.200 232.800 C 104.667 232.800,104.400 233.067,104.400 233.600 C 104.400 234.040,104.140 234.400,103.823 234.400 C 103.505 234.400,103.010 234.727,102.723 235.126 C 102.435 235.526,101.883 235.971,101.496 236.115 C 101.109 236.260,100.839 236.603,100.896 236.879 C 100.953 237.155,100.592 237.443,100.094 237.519 C 99.596 237.595,99.295 237.829,99.425 238.040 C 99.687 238.464,97.196 241.021,96.666 240.871 C 96.482 240.819,96.236 241.142,96.119 241.589 C 96.002 242.035,95.653 242.400,95.343 242.400 C 95.034 242.400,94.618 242.825,94.421 243.345 C 94.223 243.865,93.688 244.388,93.231 244.508 C 92.774 244.627,92.400 244.991,92.400 245.316 C 92.400 245.641,92.035 246.002,91.589 246.119 C 91.142 246.236,90.819 246.482,90.871 246.666 C 91.027 247.217,88.455 249.681,88.011 249.407 C 87.780 249.264,87.600 249.514,87.600 249.976 C 87.600 250.429,87.409 250.800,87.176 250.800 C 86.943 250.800,86.883 251.011,87.042 251.268 C 87.238 251.585,87.111 251.651,86.645 251.473 C 86.267 251.328,86.056 251.367,86.176 251.561 C 86.295 251.754,85.945 252.206,85.397 252.565 C 84.848 252.925,84.400 253.484,84.400 253.809 C 84.400 254.134,84.040 254.400,83.600 254.400 C 83.067 254.400,82.800 254.667,82.800 255.200 C 82.800 255.912,82.391 256.183,81.514 256.052 C 81.357 256.029,81.341 256.322,81.478 256.705 C 81.615 257.087,81.586 257.273,81.414 257.117 C 81.242 256.961,80.749 257.231,80.320 257.717 C 79.890 258.203,79.671 258.347,79.831 258.038 C 80.024 257.669,79.966 257.574,79.662 257.762 C 79.408 257.919,79.200 258.407,79.200 258.847 C 79.200 259.287,79.020 259.536,78.800 259.400 C 78.580 259.264,78.400 259.523,78.400 259.976 C 78.400 260.631,78.145 260.800,77.157 260.800 C 76.205 260.800,75.969 260.943,76.150 261.413 C 76.306 261.820,76.052 262.152,75.392 262.403 C 74.847 262.610,74.400 263.059,74.400 263.400 C 74.400 263.741,73.932 264.198,73.359 264.415 C 72.702 264.665,72.399 265.021,72.537 265.381 C 72.679 265.750,72.447 265.994,71.878 266.075 C 71.395 266.144,70.995 266.380,70.989 266.600 C 70.976 267.121,67.121 270.976,66.600 270.989 C 66.380 270.995,66.144 271.395,66.075 271.878 C 65.994 272.447,65.750 272.679,65.381 272.537 C 65.025 272.401,64.670 272.689,64.436 273.305 C 64.230 273.847,63.688 274.388,63.231 274.508 C 62.723 274.641,62.400 275.051,62.400 275.563 C 62.400 276.023,62.265 276.379,62.100 276.353 C 61.291 276.225,60.771 276.449,60.830 276.900 C 60.975 278.020,60.759 278.400,59.976 278.400 C 59.523 278.400,59.264 278.580,59.400 278.800 C 59.536 279.020,59.287 279.200,58.847 279.200 C 58.407 279.200,57.919 279.408,57.762 279.662 C 57.574 279.966,57.669 280.024,58.038 279.831 C 58.347 279.671,58.203 279.890,57.717 280.320 C 57.231 280.749,56.961 281.242,57.117 281.414 C 57.273 281.586,57.087 281.615,56.705 281.478 C 56.322 281.341,56.029 281.357,56.052 281.514 C 56.183 282.391,55.912 282.800,55.200 282.800 C 54.667 282.800,54.400 283.067,54.400 283.600 C 54.400 284.040,54.140 284.400,53.823 284.400 C 53.505 284.400,53.010 284.727,52.723 285.126 C 52.435 285.526,51.883 285.971,51.496 286.115 C 51.109 286.260,50.839 286.603,50.896 286.879 C 50.953 287.155,50.592 287.443,50.094 287.519 C 49.596 287.595,49.295 287.829,49.425 288.040 C 49.677 288.448,47.270 290.957,46.600 290.984 C 46.338 290.994,46.165 301.848,46.098 322.500 L 45.995 354.000 77.598 354.000 C 108.933 354.000,109.200 353.993,109.200 353.200 C 109.200 352.667,109.467 352.400,110.000 352.400 C 110.533 352.400,110.800 352.133,110.800 351.600 C 110.800 351.067,111.067 350.800,111.600 350.800 C 112.133 350.800,112.400 350.533,112.400 350.000 C 112.400 349.476,112.667 349.200,113.172 349.200 C 113.641 349.200,113.995 348.879,114.072 348.384 C 114.142 347.935,114.307 347.620,114.439 347.684 C 114.847 347.882,116.003 346.729,115.772 346.355 C 115.651 346.160,115.803 346.000,116.109 346.000 C 116.415 346.000,116.906 345.550,117.200 345.000 C 117.494 344.450,117.963 344.000,118.241 344.000 C 118.519 344.000,118.860 343.640,119.000 343.200 C 119.140 342.760,119.602 342.400,120.027 342.400 C 120.533 342.400,120.800 342.124,120.800 341.600 C 120.800 341.067,121.067 340.800,121.600 340.800 C 122.133 340.800,122.400 340.533,122.400 340.000 C 122.400 339.476,122.667 339.200,123.172 339.200 C 123.668 339.200,123.990 338.878,124.072 338.300 C 124.158 337.699,124.433 337.439,124.900 337.518 C 125.512 337.620,125.775 337.214,125.661 336.340 C 125.642 336.197,126.070 335.969,126.611 335.833 C 127.152 335.697,127.575 335.454,127.550 335.293 C 127.415 334.412,127.686 334.000,128.400 334.000 C 128.933 334.000,129.200 333.733,129.200 333.200 C 129.200 332.667,129.467 332.400,130.000 332.400 C 130.533 332.400,130.800 332.133,130.800 331.600 C 130.800 331.067,131.067 330.800,131.600 330.800 C 132.133 330.800,132.400 330.533,132.400 330.000 C 132.400 329.467,132.667 329.200,133.200 329.200 C 133.733 329.200,134.000 328.933,134.000 328.400 C 134.000 327.686,134.412 327.415,135.293 327.550 C 135.454 327.575,135.697 327.152,135.833 326.611 C 135.969 326.070,136.197 325.642,136.340 325.661 C 137.214 325.775,137.620 325.512,137.518 324.900 C 137.439 324.433,137.699 324.158,138.300 324.072 C 138.878 323.990,139.200 323.668,139.200 323.172 C 139.200 322.667,139.476 322.400,140.000 322.400 C 140.533 322.400,140.800 322.133,140.800 321.600 C 140.800 321.067,141.067 320.800,141.600 320.800 C 142.124 320.800,142.400 320.533,142.400 320.027 C 142.400 319.602,142.760 319.140,143.200 319.000 C 143.640 318.860,144.000 318.519,144.000 318.241 C 144.000 317.963,144.450 317.494,145.000 317.200 C 145.550 316.906,146.000 316.415,146.000 316.109 C 146.000 315.803,146.160 315.651,146.355 315.772 C 146.807 316.051,147.687 315.020,147.314 314.647 C 147.161 314.494,147.426 314.266,147.904 314.141 C 148.382 314.016,148.882 313.573,149.014 313.157 C 149.146 312.741,149.602 312.400,150.027 312.400 C 150.533 312.400,150.800 312.124,150.800 311.600 C 150.800 311.067,151.067 310.800,151.600 310.800 C 152.133 310.800,152.400 310.533,152.400 310.000 C 152.400 309.476,152.667 309.200,153.172 309.200 C 153.668 309.200,153.990 308.878,154.072 308.300 C 154.158 307.699,154.433 307.439,154.900 307.518 C 155.285 307.582,155.623 307.447,155.650 307.218 C 155.678 306.988,155.722 306.575,155.750 306.300 C 155.778 306.025,156.025 305.778,156.300 305.750 C 156.575 305.723,156.988 305.678,157.218 305.650 C 157.447 305.623,157.582 305.285,157.518 304.900 C 157.439 304.433,157.699 304.158,158.300 304.072 C 158.878 303.990,159.200 303.668,159.200 303.172 C 159.200 302.667,159.476 302.400,160.000 302.400 C 160.533 302.400,160.800 302.133,160.800 301.600 C 160.800 301.067,161.067 300.800,161.600 300.800 C 162.133 300.800,162.400 300.533,162.400 300.000 C 162.400 299.476,162.667 299.200,163.172 299.200 C 163.668 299.200,163.990 298.878,164.072 298.300 C 164.142 297.805,164.380 297.397,164.600 297.394 C 165.299 297.383,166.022 296.759,165.783 296.372 C 165.656 296.168,165.803 296.000,166.109 296.000 C 166.415 296.000,166.906 295.550,167.200 295.000 C 167.494 294.450,167.963 294.000,168.241 294.000 C 168.519 294.000,168.860 293.640,169.000 293.200 C 169.140 292.760,169.602 292.400,170.027 292.400 C 170.533 292.400,170.800 292.124,170.800 291.600 C 170.800 291.067,171.067 290.800,171.600 290.800 C 172.133 290.800,172.400 290.533,172.400 290.000 C 172.400 289.476,172.667 289.200,173.172 289.200 C 173.668 289.200,173.990 288.878,174.072 288.300 C 174.158 287.699,174.433 287.439,174.900 287.518 C 175.512 287.620,175.775 287.214,175.661 286.340 C 175.642 286.197,176.070 285.969,176.611 285.833 C 177.152 285.697,177.575 285.454,177.550 285.293 C 177.415 284.412,177.686 284.000,178.400 284.000 C 178.933 284.000,179.200 283.733,179.200 283.200 C 179.200 282.667,179.467 282.400,180.000 282.400 C 180.533 282.400,180.800 282.133,180.800 281.600 C 180.800 281.067,181.067 280.800,181.600 280.800 C 182.133 280.800,182.400 280.533,182.400 280.000 C 182.400 279.467,182.667 279.200,183.200 279.200 C 183.733 279.200,184.000 278.933,184.000 278.400 C 184.000 277.686,184.412 277.415,185.293 277.550 C 185.454 277.575,185.697 277.152,185.833 276.611 C 185.969 276.070,186.197 275.642,186.340 275.661 C 187.214 275.775,187.620 275.512,187.518 274.900 C 187.439 274.433,187.699 274.158,188.300 274.072 C 188.878 273.990,189.200 273.668,189.200 273.172 C 189.200 272.667,189.476 272.400,190.000 272.400 C 190.533 272.400,190.800 272.133,190.800 271.600 C 190.800 271.067,191.067 270.800,191.600 270.800 C 192.124 270.800,192.400 270.533,192.400 270.027 C 192.400 269.602,192.760 269.140,193.200 269.000 C 193.640 268.860,194.000 268.519,194.000 268.241 C 194.000 267.963,194.450 267.494,195.000 267.200 C 195.550 266.906,196.000 266.415,196.000 266.109 C 196.000 265.803,196.160 265.651,196.355 265.772 C 196.807 266.051,197.687 265.020,197.314 264.647 C 197.161 264.494,197.426 264.266,197.904 264.141 C 198.382 264.016,198.882 263.573,199.014 263.157 C 199.146 262.741,199.602 262.400,200.027 262.400 C 200.533 262.400,200.800 262.124,200.800 261.600 C 200.800 261.067,201.067 260.800,201.600 260.800 C 202.133 260.800,202.400 260.533,202.400 260.000 C 202.400 259.476,202.667 259.200,203.172 259.200 C 203.668 259.200,203.990 258.878,204.072 258.300 C 204.158 257.699,204.433 257.439,204.900 257.518 C 205.285 257.582,205.623 257.447,205.650 257.218 C 205.678 256.988,205.722 256.575,205.750 256.300 C 205.778 256.025,206.025 255.778,206.300 255.750 C 206.575 255.722,206.988 255.678,207.218 255.650 C 207.447 255.623,207.582 255.285,207.518 254.900 C 207.439 254.433,207.699 254.158,208.300 254.072 C 208.878 253.990,209.200 253.668,209.200 253.172 C 209.200 252.667,209.476 252.400,210.000 252.400 C 210.533 252.400,210.800 252.133,210.800 251.600 C 210.800 251.067,211.067 250.800,211.600 250.800 C 212.124 250.800,212.400 250.533,212.400 250.027 C 212.400 249.602,212.741 249.146,213.157 249.014 C 213.573 248.882,214.016 248.382,214.141 247.904 C 214.266 247.426,214.494 247.161,214.647 247.314 C 215.020 247.687,216.051 246.807,215.772 246.355 C 215.651 246.160,215.803 246.000,216.109 246.000 C 216.415 246.000,216.906 245.550,217.200 245.000 C 217.494 244.450,217.963 244.000,218.241 244.000 C 218.519 244.000,218.860 243.640,219.000 243.200 C 219.140 242.760,219.602 242.400,220.027 242.400 C 220.533 242.400,220.800 242.124,220.800 241.600 C 220.800 241.067,221.067 240.800,221.600 240.800 C 222.133 240.800,222.400 240.533,222.400 240.000 C 222.400 239.476,222.667 239.200,223.172 239.200 C 223.668 239.200,223.990 238.878,224.072 238.300 C 224.158 237.699,224.433 237.439,224.900 237.518 C 225.512 237.620,225.775 237.214,225.661 236.340 C 225.642 236.197,226.070 235.969,226.611 235.833 C 227.152 235.697,227.575 235.454,227.550 235.293 C 227.415 234.412,227.686 234.000,228.400 234.000 C 228.933 234.000,229.200 233.733,229.200 233.200 C 229.200 232.667,229.467 232.400,230.000 232.400 C 230.533 232.400,230.800 232.133,230.800 231.600 C 230.800 231.067,231.067 230.800,231.600 230.800 C 232.133 230.800,232.400 230.533,232.400 230.000 C 232.400 229.467,232.667 229.200,233.200 229.200 C 233.733 229.200,234.000 228.933,234.000 228.400 C 234.000 227.686,234.412 227.415,235.293 227.550 C 235.454 227.575,235.697 227.152,235.833 226.611 C 235.969 226.070,236.197 225.642,236.340 225.661 C 237.214 225.775,237.620 225.512,237.518 224.900 C 237.439 224.433,237.699 224.158,238.300 224.072 C 238.878 223.990,239.200 223.668,239.200 223.172 C 239.200 222.667,239.476 222.400,240.000 222.400 C 240.533 222.400,240.800 222.133,240.800 221.600 C 240.800 221.067,241.067 220.800,241.600 220.800 C 242.124 220.800,242.400 220.533,242.400 220.027 C 242.400 219.602,242.760 219.140,243.200 219.000 C 243.640 218.860,244.000 218.519,244.000 218.241 C 244.000 217.963,244.450 217.494,245.000 217.200 C 245.550 216.906,246.000 216.395,246.000 216.066 C 246.000 215.736,246.118 215.585,246.263 215.730 C 246.638 216.105,247.639 215.187,247.355 214.728 C 247.226 214.518,247.492 214.249,247.947 214.130 C 248.401 214.011,248.882 213.573,249.014 213.157 C 249.146 212.741,249.602 212.400,250.027 212.400 C 250.533 212.400,250.800 212.124,250.800 211.600 C 250.800 211.067,251.067 210.800,251.600 210.800 C 252.133 210.800,252.400 210.533,252.400 210.000 C 252.400 209.476,252.667 209.200,253.172 209.200 C 253.668 209.200,253.990 208.878,254.072 208.300 C 254.158 207.699,254.433 207.439,254.900 207.518 C 255.285 207.582,255.623 207.447,255.650 207.218 C 255.678 206.988,255.722 206.575,255.750 206.300 C 255.778 206.025,256.025 205.778,256.300 205.750 C 256.575 205.722,256.988 205.678,257.218 205.650 C 257.447 205.623,257.582 205.285,257.518 204.900 C 257.439 204.433,257.699 204.158,258.300 204.072 C 258.878 203.990,259.200 203.668,259.200 203.172 C 259.200 202.667,259.476 202.400,260.000 202.400 C 260.533 202.400,260.800 202.133,260.800 201.600 C 260.800 201.067,261.067 200.800,261.600 200.800 C 262.133 200.800,262.400 200.533,262.400 200.000 C 262.400 199.476,262.667 199.200,263.172 199.200 C 263.641 199.200,263.995 198.879,264.072 198.384 C 264.142 197.935,264.380 197.560,264.600 197.550 C 265.245 197.521,266.010 196.740,265.772 196.355 C 265.651 196.160,265.803 196.000,266.109 196.000 C 266.415 196.000,266.906 195.550,267.200 195.000 C 267.494 194.450,267.963 194.000,268.241 194.000 C 268.519 194.000,268.860 193.640,269.000 193.200 C 269.140 192.760,269.602 192.400,270.027 192.400 C 270.533 192.400,270.800 192.124,270.800 191.600 C 270.800 191.067,271.067 190.800,271.600 190.800 C 272.133 190.800,272.400 190.533,272.400 190.000 C 272.400 189.476,272.667 189.200,273.172 189.200 C 273.668 189.200,273.990 188.878,274.072 188.300 C 274.158 187.699,274.433 187.439,274.900 187.518 C 275.512 187.620,275.775 187.214,275.661 186.340 C 275.642 186.197,276.070 185.969,276.611 185.833 C 277.152 185.697,277.575 185.454,277.550 185.293 C 277.415 184.412,277.686 184.000,278.400 184.000 C 278.933 184.000,279.200 183.733,279.200 183.200 C 279.200 182.667,279.467 182.400,280.000 182.400 C 280.533 182.400,280.800 182.133,280.800 181.600 C 280.800 181.067,281.067 180.800,281.600 180.800 C 282.133 180.800,282.400 180.533,282.400 180.000 C 282.400 179.467,282.667 179.200,283.200 179.200 C 283.733 179.200,284.000 178.933,284.000 178.400 C 284.000 177.686,284.412 177.415,285.293 177.550 C 285.454 177.575,285.697 177.152,285.833 176.611 C 285.969 176.070,286.197 175.642,286.340 175.661 C 287.214 175.775,287.620 175.512,287.518 174.900 C 287.439 174.433,287.699 174.158,288.300 174.072 C 288.878 173.990,289.200 173.668,289.200 173.172 C 289.200 172.667,289.476 172.400,290.000 172.400 C 290.533 172.400,290.800 172.133,290.800 171.600 C 290.800 171.067,291.067 170.800,291.600 170.800 C 292.124 170.800,292.400 170.533,292.400 170.027 C 292.400 169.602,292.760 169.140,293.200 169.000 C 293.640 168.860,294.000 168.519,294.000 168.241 C 294.000 167.963,294.450 167.494,295.000 167.200 C 295.550 166.906,296.000 166.415,296.000 166.109 C 296.000 165.803,296.160 165.651,296.355 165.772 C 296.807 166.051,297.687 165.020,297.314 164.647 C 297.161 164.494,297.426 164.266,297.904 164.141 C 298.382 164.016,298.882 163.573,299.014 163.157 C 299.146 162.741,299.602 162.400,300.027 162.400 C 300.533 162.400,300.800 162.124,300.800 161.600 C 300.800 161.067,301.067 160.800,301.600 160.800 C 302.133 160.800,302.400 160.533,302.400 160.000 C 302.400 159.476,302.667 159.200,303.172 159.200 C 303.668 159.200,303.990 158.878,304.072 158.300 C 304.158 157.699,304.433 157.439,304.900 157.518 C 305.285 157.582,305.623 157.447,305.650 157.218 C 305.678 156.988,305.723 156.575,305.750 156.300 C 305.778 156.025,306.025 155.778,306.300 155.750 C 306.575 155.722,306.988 155.678,307.218 155.650 C 307.447 155.623,307.582 155.285,307.518 154.900 C 307.439 154.433,307.699 154.158,308.300 154.072 C 308.878 153.990,309.200 153.668,309.200 153.172 C 309.200 152.667,309.476 152.400,310.000 152.400 C 310.533 152.400,310.800 152.133,310.800 151.600 C 310.800 151.067,311.067 150.800,311.600 150.800 C 312.133 150.800,312.400 150.533,312.400 150.000 C 312.400 149.476,312.667 149.200,313.172 149.200 C 313.668 149.200,313.990 148.878,314.072 148.300 C 314.142 147.805,314.307 147.490,314.439 147.600 C 314.800 147.903,316.023 146.761,315.772 146.355 C 315.651 146.160,315.803 146.000,316.109 146.000 C 316.415 146.000,316.906 145.550,317.200 145.000 C 317.494 144.450,317.963 144.000,318.241 144.000 C 318.519 144.000,318.860 143.640,319.000 143.200 C 319.140 142.760,319.602 142.400,320.027 142.400 C 320.533 142.400,320.800 142.124,320.800 141.600 C 320.800 141.067,321.067 140.800,321.600 140.800 C 322.133 140.800,322.400 140.533,322.400 140.000 C 322.400 139.476,322.667 139.200,323.172 139.200 C 323.668 139.200,323.990 138.878,324.072 138.300 C 324.158 137.699,324.433 137.439,324.900 137.518 C 325.512 137.620,325.775 137.214,325.661 136.340 C 325.642 136.197,326.070 135.969,326.611 135.833 C 327.152 135.697,327.575 135.454,327.550 135.293 C 327.415 134.412,327.686 134.000,328.400 134.000 C 328.933 134.000,329.200 133.733,329.200 133.200 C 329.200 132.667,329.467 132.400,330.000 132.400 C 330.533 132.400,330.800 132.133,330.800 131.600 C 330.800 131.067,331.067 130.800,331.600 130.800 C 332.133 130.800,332.400 130.533,332.400 130.000 C 332.400 129.467,332.667 129.200,333.200 129.200 C 333.733 129.200,334.000 128.933,334.000 128.400 C 334.000 127.686,334.412 127.415,335.293 127.550 C 335.454 127.575,335.697 127.152,335.833 126.611 C 335.969 126.070,336.197 125.642,336.340 125.661 C 337.214 125.775,337.620 125.512,337.518 124.900 C 337.439 124.433,337.699 124.158,338.300 124.072 C 338.878 123.990,339.200 123.668,339.200 123.172 C 339.200 122.667,339.476 122.400,340.000 122.400 C 340.533 122.400,340.800 122.133,340.800 121.600 C 340.800 121.067,341.067 120.800,341.600 120.800 C 342.124 120.800,342.400 120.533,342.400 120.027 C 342.400 119.602,342.760 119.140,343.200 119.000 C 343.640 118.860,344.000 118.519,344.000 118.241 C 344.000 117.963,344.450 117.494,345.000 117.200 C 345.550 116.906,346.000 116.415,346.000 116.109 C 346.000 115.803,346.160 115.651,346.355 115.772 C 346.807 116.051,347.687 115.020,347.314 114.647 C 347.161 114.494,347.426 114.266,347.904 114.141 C 348.382 114.016,348.882 113.573,349.014 113.157 C 349.146 112.741,349.602 112.400,350.027 112.400 C 350.533 112.400,350.800 112.124,350.800 111.600 C 350.800 111.067,351.067 110.800,351.600 110.800 C 352.133 110.800,352.400 110.533,352.400 110.000 C 352.400 109.467,352.667 109.200,353.200 109.200 C 353.993 109.200,354.000 108.933,354.000 77.600 L 354.000 46.000 322.600 46.000 C 305.330 46.000,291.178 46.090,291.150 46.200 M243.226 48.014 C 243.652 48.242,244.000 48.692,244.000 49.015 C 244.000 49.554,233.707 60.065,226.872 66.506 C 225.292 67.995,224.000 69.304,224.000 69.415 C 224.000 69.526,222.996 70.558,221.769 71.708 C 220.541 72.859,217.886 75.491,215.869 77.557 C 213.851 79.623,210.882 82.593,209.271 84.157 C 207.660 85.721,204.784 88.530,202.880 90.400 L 199.418 93.800 147.275 93.906 C 103.228 93.995,95.044 94.099,94.571 94.571 C 94.099 95.044,93.995 103.257,93.906 147.480 L 93.800 199.829 85.921 207.715 C 81.587 212.052,77.852 215.600,77.621 215.600 C 77.389 215.600,77.200 215.766,77.200 215.969 C 77.200 216.450,74.850 218.800,74.369 218.800 C 74.166 218.800,74.000 218.984,74.000 219.208 C 74.000 219.433,72.992 220.558,71.760 221.708 C 70.528 222.859,68.233 225.127,66.660 226.750 C 62.538 231.001,58.233 235.290,54.051 239.311 C 52.043 241.242,50.400 242.978,50.400 243.168 C 50.400 244.369,48.185 243.939,47.845 242.672 C 47.214 240.321,47.592 48.865,48.229 48.229 C 49.001 47.457,241.788 47.245,243.226 48.014 M351.920 48.480 C 352.284 48.844,352.400 55.649,352.400 76.661 C 352.400 104.927,352.346 106.015,350.908 106.920 C 350.629 107.096,350.400 107.501,350.400 107.820 C 350.400 108.139,350.195 108.400,349.945 108.400 C 349.607 108.400,340.254 117.614,334.786 123.334 C 334.529 123.603,324.555 133.587,323.334 134.798 C 323.150 134.980,320.525 137.519,317.500 140.440 C 314.475 143.361,311.999 145.942,311.997 146.175 C 311.996 146.409,311.451 146.910,310.786 147.288 C 310.121 147.667,309.267 148.521,308.888 149.186 C 308.510 149.851,308.050 150.396,307.868 150.397 C 307.370 150.401,300.400 157.467,300.400 157.968 C 300.400 158.205,300.195 158.400,299.945 158.400 C 299.601 158.400,291.339 166.539,284.860 173.260 C 284.543 173.589,274.551 183.591,273.334 184.798 C 273.150 184.980,270.525 187.519,267.500 190.440 C 264.475 193.361,261.999 195.942,261.997 196.175 C 261.996 196.409,261.451 196.910,260.786 197.288 C 260.121 197.667,259.267 198.521,258.888 199.186 C 258.510 199.851,258.050 200.396,257.868 200.397 C 257.370 200.401,250.400 207.467,250.400 207.968 C 250.400 208.205,250.195 208.400,249.945 208.400 C 249.607 208.400,240.254 217.614,234.786 223.334 C 234.279 223.864,223.720 234.417,223.179 234.934 C 217.530 240.333,208.400 249.608,208.400 249.948 C 208.400 250.197,208.205 250.400,207.968 250.400 C 207.403 250.400,200.400 257.403,200.400 257.968 C 200.400 258.205,200.195 258.400,199.945 258.400 C 199.596 258.400,192.137 265.748,184.794 273.326 C 184.420 273.712,174.829 283.312,173.400 284.732 C 173.180 284.950,170.525 287.519,167.500 290.440 C 164.475 293.361,161.999 295.942,161.997 296.175 C 161.996 296.409,161.451 296.910,160.786 297.288 C 160.121 297.667,159.267 298.521,158.888 299.186 C 158.510 299.851,158.050 300.396,157.868 300.397 C 157.370 300.401,150.400 307.467,150.400 307.968 C 150.400 308.205,150.195 308.400,149.945 308.400 C 149.601 308.400,141.339 316.539,134.860 323.260 C 134.543 323.589,124.551 333.591,123.334 334.798 C 123.150 334.980,120.525 337.519,117.500 340.440 C 114.475 343.361,111.999 345.942,111.997 346.175 C 111.996 346.409,111.451 346.910,110.786 347.288 C 110.121 347.667,109.267 348.521,108.888 349.186 C 108.510 349.851,107.984 350.396,107.720 350.397 C 107.456 350.399,107.096 350.629,106.920 350.908 C 106.015 352.346,104.927 352.400,76.661 352.400 C 55.649 352.400,48.844 352.284,48.480 351.920 C 48.116 351.556,48.000 344.626,48.000 323.175 L 48.000 294.910 49.173 293.434 C 49.819 292.621,50.854 291.565,51.473 291.086 C 52.093 290.607,52.667 290.055,52.749 289.861 C 52.831 289.666,54.071 288.403,55.505 287.053 C 56.939 285.704,59.572 283.096,61.356 281.258 C 64.309 278.215,75.809 266.696,84.674 257.902 C 89.249 253.364,89.439 253.172,90.501 252.046 C 90.995 251.522,93.830 248.690,96.800 245.753 C 99.770 242.816,102.380 240.221,102.600 239.987 C 102.820 239.752,104.150 238.445,105.556 237.080 C 106.962 235.716,109.572 233.096,111.356 231.258 C 114.309 228.215,125.809 216.696,134.674 207.902 C 139.249 203.364,139.439 203.172,140.501 202.046 C 140.995 201.522,143.830 198.690,146.800 195.753 C 149.770 192.816,152.380 190.221,152.600 189.987 C 152.820 189.752,154.150 188.445,155.556 187.080 C 156.962 185.716,159.572 183.096,161.356 181.258 C 164.309 178.215,175.809 166.696,184.674 157.902 C 189.249 153.364,189.439 153.172,190.501 152.046 C 190.995 151.522,193.830 148.690,196.800 145.753 C 199.770 142.816,202.380 140.221,202.600 139.987 C 202.820 139.752,204.153 138.445,205.561 137.080 C 206.970 135.716,208.860 133.823,209.761 132.874 C 211.309 131.243,227.008 115.507,234.674 107.902 C 239.248 103.364,239.439 103.173,240.501 102.046 C 240.995 101.522,243.830 98.690,246.800 95.753 C 249.770 92.816,252.380 90.221,252.600 89.987 C 252.820 89.752,254.150 88.445,255.556 87.080 C 256.962 85.716,259.572 83.096,261.356 81.258 C 266.196 76.270,280.655 61.859,284.514 58.175 C 286.372 56.401,288.096 54.568,288.346 54.102 C 288.595 53.636,289.114 53.150,289.500 53.023 C 289.885 52.896,290.568 52.264,291.017 51.618 C 291.467 50.972,292.527 49.894,293.372 49.222 L 294.910 48.000 323.175 48.000 C 344.626 48.000,351.556 48.116,351.920 48.480 M349.700 152.663 C 349.425 152.775,349.200 153.110,349.200 153.406 C 349.200 153.703,348.840 154.060,348.400 154.200 C 347.960 154.340,347.600 154.802,347.600 155.227 C 347.600 155.733,347.324 156.000,346.800 156.000 C 346.267 156.000,346.000 156.267,346.000 156.800 C 346.000 157.333,345.733 157.600,345.200 157.600 C 344.760 157.600,344.400 157.748,344.400 157.928 C 344.400 158.568,342.118 160.800,341.464 160.800 C 341.057 160.800,340.800 161.124,340.800 161.637 C 340.800 162.138,340.479 162.559,340.000 162.684 C 339.560 162.799,339.200 163.212,339.200 163.602 C 339.200 164.032,338.924 164.289,338.500 164.256 C 338.057 164.220,337.753 164.530,337.672 165.100 C 337.590 165.678,337.268 166.000,336.772 166.000 C 336.267 166.000,336.000 166.276,336.000 166.800 C 336.000 167.324,335.733 167.600,335.227 167.600 C 334.802 167.600,334.340 167.960,334.200 168.400 C 334.060 168.840,333.688 169.200,333.373 169.200 C 333.058 169.200,332.800 169.464,332.800 169.786 C 332.800 170.467,331.440 171.307,331.019 170.886 C 330.862 170.729,330.770 170.780,330.814 171.000 C 330.995 171.896,330.759 172.359,330.000 172.600 C 329.560 172.740,329.200 173.100,329.200 173.400 C 329.200 173.700,328.840 174.060,328.400 174.200 C 327.960 174.340,327.600 174.802,327.600 175.227 C 327.600 175.733,327.324 176.000,326.800 176.000 C 326.267 176.000,326.000 176.267,326.000 176.800 C 326.000 177.324,325.733 177.600,325.227 177.600 C 324.802 177.600,324.340 177.960,324.200 178.400 C 324.060 178.840,323.700 179.200,323.400 179.200 C 323.100 179.200,322.740 179.560,322.600 180.000 C 322.359 180.759,321.896 180.995,321.000 180.814 C 320.780 180.770,320.729 180.862,320.886 181.019 C 321.307 181.440,320.467 182.800,319.786 182.800 C 319.464 182.800,319.200 183.058,319.200 183.373 C 319.200 183.688,318.840 184.060,318.400 184.200 C 317.960 184.340,317.600 184.781,317.600 185.180 C 317.600 185.580,317.240 186.001,316.800 186.116 C 316.360 186.231,316.000 186.599,316.000 186.935 C 316.000 187.270,315.595 187.602,315.100 187.672 C 314.530 187.753,314.220 188.057,314.256 188.500 C 314.290 188.931,314.031 189.200,313.583 189.200 C 313.182 189.200,312.740 189.560,312.600 190.000 C 312.460 190.440,311.998 190.800,311.573 190.800 C 311.055 190.800,310.800 191.076,310.800 191.637 C 310.800 192.138,310.479 192.559,310.000 192.684 C 309.560 192.799,309.200 193.130,309.200 193.420 C 309.200 193.709,308.840 194.060,308.400 194.200 C 307.960 194.340,307.600 194.781,307.600 195.180 C 307.600 195.580,307.240 196.001,306.800 196.116 C 306.360 196.231,306.000 196.612,306.000 196.963 C 306.000 197.313,305.724 197.600,305.387 197.600 C 304.365 197.600,304.377 197.015,304.287 251.422 L 304.200 304.200 251.800 304.302 C 192.839 304.417,197.600 304.331,197.600 305.285 C 197.600 305.733,197.302 306.000,196.800 306.000 C 196.267 306.000,196.000 306.267,196.000 306.800 C 196.000 307.333,195.733 307.600,195.200 307.600 C 194.760 307.600,194.400 307.864,194.400 308.187 C 194.400 308.510,193.905 309.043,193.300 309.371 C 192.695 309.699,192.354 309.975,192.542 309.984 C 192.989 310.005,190.426 312.400,189.958 312.400 C 189.761 312.400,189.600 312.581,189.600 312.803 C 189.600 313.024,189.150 313.597,188.600 314.075 C 188.050 314.553,187.600 315.182,187.600 315.472 C 187.600 315.762,187.240 316.000,186.800 316.000 C 186.267 316.000,186.000 316.267,186.000 316.800 C 186.000 317.333,185.733 317.600,185.200 317.600 C 184.751 317.600,184.400 317.867,184.400 318.209 C 184.400 318.543,183.956 319.020,183.413 319.267 C 182.869 319.515,182.499 319.836,182.589 319.982 C 182.799 320.322,180.399 322.600,179.830 322.600 C 179.593 322.600,179.400 322.870,179.400 323.200 C 179.400 323.530,178.995 323.978,178.500 324.195 C 178.005 324.412,177.600 324.886,177.600 325.248 C 177.600 325.610,177.240 326.001,176.800 326.116 C 176.360 326.231,176.000 326.612,176.000 326.963 C 176.000 327.313,175.683 327.600,175.295 327.600 C 174.907 327.600,174.412 328.005,174.195 328.500 C 173.978 328.995,173.530 329.400,173.200 329.400 C 172.870 329.400,172.600 329.593,172.600 329.830 C 172.600 330.399,170.322 332.799,169.982 332.589 C 169.836 332.499,169.515 332.869,169.267 333.413 C 169.020 333.956,168.543 334.400,168.209 334.400 C 167.874 334.400,167.600 334.739,167.600 335.153 C 167.600 335.570,167.243 336.000,166.800 336.116 C 166.360 336.231,166.000 336.612,166.000 336.963 C 166.000 337.313,165.762 337.600,165.472 337.600 C 165.182 337.600,164.553 338.050,164.075 338.600 C 163.597 339.150,163.024 339.600,162.803 339.600 C 162.581 339.600,162.400 339.761,162.400 339.958 C 162.400 340.426,160.005 342.989,159.984 342.542 C 159.975 342.354,159.699 342.695,159.371 343.300 C 159.043 343.905,158.510 344.400,158.187 344.400 C 157.864 344.400,157.600 344.760,157.600 345.200 C 157.600 345.733,157.333 346.000,156.800 346.000 C 156.267 346.000,156.000 346.267,156.000 346.800 C 156.000 347.333,155.733 347.600,155.200 347.600 C 154.750 347.600,154.400 347.867,154.400 348.210 C 154.400 348.545,153.987 348.977,153.483 349.168 C 152.682 349.473,152.568 349.786,152.583 351.658 L 152.600 353.800 154.900 353.920 C 157.439 354.052,157.770 353.642,156.585 351.833 C 155.979 350.909,156.114 350.748,164.984 341.847 C 169.942 336.871,174.179 332.800,174.399 332.800 C 174.620 332.800,174.800 332.635,174.800 332.432 C 174.800 331.953,181.953 324.800,182.432 324.800 C 182.635 324.800,182.800 324.632,182.800 324.426 C 182.800 324.220,186.759 320.082,191.597 315.230 L 200.394 306.409 252.777 306.304 C 295.113 306.220,305.260 306.100,305.680 305.680 C 306.099 305.261,306.239 294.902,306.400 252.152 C 306.594 200.823,306.624 199.130,307.351 198.723 C 307.764 198.492,310.374 195.950,313.151 193.075 C 315.928 190.199,318.617 187.476,319.126 187.023 C 319.636 186.570,322.731 183.545,326.003 180.300 C 329.276 177.055,332.144 174.400,332.377 174.400 C 332.610 174.400,332.803 174.175,332.807 173.900 C 332.815 173.234,350.160 156.000,350.821 156.000 C 351.105 156.000,351.659 156.292,352.054 156.649 C 353.302 157.778,354.000 157.071,354.000 154.676 L 354.000 152.527 352.100 152.493 C 351.055 152.474,349.975 152.551,349.700 152.663 M351.862 351.931 C 350.726 353.187,351.016 354.000,352.600 354.000 C 353.933 354.000,354.000 353.933,354.000 352.600 C 354.000 350.987,352.999 350.675,351.862 351.931 " stroke="none" fill="#258f87" fill-rule="evenodd"></path><path id="path2" d="M291.104 53.402 C 285.241 59.382,285.886 58.742,280.216 64.200 C 277.701 66.620,275.468 68.780,275.253 69.000 C 274.770 69.494,269.815 74.450,269.254 75.000 C 269.030 75.220,266.770 77.560,264.233 80.200 C 261.695 82.840,259.390 85.225,259.110 85.500 C 258.829 85.775,253.560 91.040,247.400 97.200 C 233.768 110.832,235.672 108.948,230.216 114.200 C 227.701 116.620,225.439 118.810,225.188 119.066 C 224.594 119.671,219.671 124.594,219.066 125.188 C 218.809 125.439,216.620 127.701,214.200 130.216 C 208.914 135.708,210.897 133.703,197.400 147.200 C 183.768 160.832,185.672 158.948,180.216 164.200 C 177.701 166.620,175.409 168.839,175.122 169.131 C 174.478 169.787,169.504 174.761,169.123 175.131 C 168.971 175.279,166.770 177.560,164.233 180.200 C 161.695 182.840,159.390 185.225,159.110 185.500 C 158.829 185.775,153.560 191.040,147.400 197.200 C 133.768 210.832,135.672 208.948,130.216 214.200 C 127.701 216.620,125.439 218.809,125.188 219.066 C 124.624 219.640,119.660 224.606,119.189 225.066 C 119.000 225.250,116.770 227.560,114.233 230.200 C 111.695 232.840,109.390 235.225,109.110 235.500 C 108.829 235.775,103.560 241.040,97.400 247.200 C 83.768 260.832,85.672 258.948,80.216 264.200 C 77.701 266.620,75.439 268.810,75.188 269.066 C 74.624 269.640,69.660 274.606,69.189 275.066 C 69.000 275.250,66.770 277.560,64.233 280.200 C 61.695 282.840,59.368 285.248,59.061 285.551 C 58.753 285.854,56.229 288.331,53.451 291.055 L 48.400 296.008 48.400 323.171 C 48.400 338.111,48.509 350.619,48.643 350.967 C 48.861 351.536,51.700 351.600,76.629 351.600 L 104.372 351.600 105.600 350.400 C 106.275 349.740,107.070 349.200,107.365 349.200 C 107.661 349.200,108.124 348.666,108.394 348.013 C 108.665 347.361,109.231 346.717,109.654 346.583 C 110.076 346.449,110.730 345.858,111.108 345.270 C 112.045 343.811,121.619 334.400,122.166 334.400 C 122.407 334.400,122.826 333.900,123.096 333.290 C 123.366 332.679,124.130 331.859,124.794 331.467 C 125.457 331.075,126.000 330.611,126.000 330.435 C 126.000 330.017,130.017 326.000,130.435 326.000 C 130.611 326.000,131.075 325.457,131.467 324.794 C 131.859 324.130,132.670 323.371,133.269 323.105 C 133.868 322.840,134.453 322.258,134.569 321.812 C 134.685 321.365,135.424 320.565,136.211 320.034 C 136.999 319.502,137.835 318.708,138.070 318.269 C 138.617 317.247,143.885 312.016,145.278 311.111 C 145.862 310.732,146.449 310.076,146.583 309.654 C 146.717 309.231,147.361 308.665,148.013 308.394 C 148.666 308.124,149.200 307.680,149.200 307.408 C 149.200 306.762,156.762 299.200,157.408 299.200 C 157.680 299.200,158.124 298.666,158.394 298.013 C 158.665 297.361,159.231 296.717,159.654 296.583 C 160.076 296.449,160.730 295.858,161.108 295.270 C 162.045 293.811,171.619 284.400,172.166 284.400 C 172.407 284.400,172.826 283.900,173.096 283.290 C 173.366 282.679,174.130 281.859,174.794 281.467 C 175.457 281.075,176.000 280.611,176.000 280.435 C 176.000 280.017,180.017 276.000,180.435 276.000 C 180.611 276.000,181.075 275.457,181.467 274.794 C 181.859 274.130,182.670 273.371,183.269 273.105 C 183.868 272.840,184.453 272.258,184.569 271.812 C 184.685 271.365,185.424 270.565,186.211 270.034 C 186.999 269.502,187.835 268.708,188.070 268.269 C 188.617 267.247,193.885 262.016,195.278 261.111 C 195.862 260.732,196.449 260.076,196.583 259.654 C 196.717 259.231,197.361 258.665,198.013 258.394 C 198.666 258.124,199.200 257.680,199.200 257.408 C 199.200 256.762,206.762 249.200,207.408 249.200 C 207.680 249.200,208.124 248.666,208.394 248.013 C 208.665 247.361,209.231 246.717,209.654 246.583 C 210.076 246.449,210.730 245.858,211.108 245.270 C 212.045 243.811,221.619 234.400,222.166 234.400 C 222.407 234.400,222.826 233.900,223.096 233.290 C 223.366 232.679,224.130 231.859,224.794 231.467 C 225.457 231.075,226.000 230.611,226.000 230.435 C 226.000 230.017,230.017 226.000,230.435 226.000 C 230.611 226.000,231.075 225.457,231.467 224.794 C 231.859 224.130,232.670 223.371,233.269 223.105 C 233.868 222.840,234.453 222.258,234.569 221.812 C 234.685 221.365,235.424 220.565,236.211 220.034 C 236.999 219.502,237.835 218.708,238.070 218.269 C 238.617 217.247,243.885 212.016,245.278 211.111 C 245.862 210.732,246.449 210.076,246.583 209.654 C 246.717 209.231,247.361 208.665,248.013 208.394 C 248.666 208.124,249.200 207.680,249.200 207.408 C 249.200 206.762,256.762 199.200,257.408 199.200 C 257.680 199.200,258.124 198.666,258.394 198.013 C 258.665 197.361,259.231 196.717,259.654 196.583 C 260.076 196.449,260.730 195.858,261.108 195.270 C 262.045 193.811,271.619 184.400,272.166 184.400 C 272.407 184.400,272.826 183.900,273.096 183.290 C 273.366 182.679,274.130 181.859,274.794 181.467 C 275.457 181.075,276.000 180.611,276.000 180.435 C 276.000 180.017,280.017 176.000,280.435 176.000 C 280.611 176.000,281.075 175.457,281.467 174.794 C 281.859 174.130,282.670 173.371,283.269 173.105 C 283.868 172.840,284.453 172.258,284.569 171.812 C 284.685 171.365,285.424 170.565,286.211 170.034 C 286.999 169.502,287.835 168.708,288.070 168.269 C 288.617 167.247,293.885 162.016,295.278 161.111 C 295.862 160.732,296.449 160.076,296.583 159.654 C 296.717 159.231,297.361 158.665,298.013 158.394 C 298.666 158.124,299.200 157.680,299.200 157.408 C 299.200 156.762,306.762 149.200,307.408 149.200 C 307.680 149.200,308.124 148.666,308.394 148.013 C 308.665 147.361,309.231 146.717,309.654 146.583 C 310.076 146.449,310.730 145.858,311.108 145.270 C 312.045 143.811,321.619 134.400,322.166 134.400 C 322.407 134.400,322.826 133.900,323.096 133.290 C 323.366 132.679,324.130 131.859,324.794 131.467 C 325.457 131.075,326.000 130.611,326.000 130.435 C 326.000 130.017,330.017 126.000,330.435 126.000 C 330.611 126.000,331.075 125.457,331.467 124.794 C 331.859 124.130,332.670 123.371,333.269 123.105 C 333.868 122.840,334.453 122.258,334.569 121.812 C 334.685 121.365,335.424 120.565,336.211 120.034 C 336.999 119.502,337.835 118.708,338.070 118.269 C 338.617 117.247,343.885 112.016,345.278 111.111 C 345.862 110.732,346.449 110.076,346.583 109.654 C 346.717 109.231,347.361 108.665,348.013 108.394 C 348.666 108.124,349.200 107.661,349.200 107.365 C 349.200 107.070,349.740 106.275,350.400 105.600 L 351.600 104.372 351.600 76.629 C 351.600 51.700,351.536 48.861,350.967 48.643 C 350.619 48.509,338.111 48.400,323.171 48.400 L 296.008 48.400 291.104 53.402 M304.114 235.400 C 304.117 236.500,304.195 236.903,304.287 236.295 C 304.379 235.686,304.377 234.786,304.282 234.295 C 304.187 233.803,304.111 234.300,304.114 235.400 " stroke="none" fill="#FFF" fill-rule="evenodd"></path><path id="path3" d="M293.372 49.222 C 292.527 49.894,291.467 50.972,291.017 51.618 C 290.568 52.264,289.885 52.896,289.500 53.023 C 289.114 53.150,288.595 53.636,288.346 54.102 C 288.096 54.568,286.372 56.401,284.514 58.175 C 280.655 61.859,266.196 76.270,261.356 81.258 C 259.572 83.096,256.962 85.716,255.556 87.080 C 254.150 88.445,252.820 89.752,252.600 89.987 C 252.380 90.221,249.770 92.816,246.800 95.753 C 243.830 98.690,240.995 101.522,240.501 102.046 C 239.439 103.173,239.248 103.364,234.674 107.902 C 227.008 115.507,211.309 131.243,209.761 132.874 C 208.860 133.823,206.970 135.716,205.561 137.080 C 204.153 138.445,202.820 139.752,202.600 139.987 C 202.380 140.221,199.770 142.816,196.800 145.753 C 193.830 148.690,190.995 151.522,190.501 152.046 C 189.439 153.172,189.249 153.364,184.674 157.902 C 175.809 166.696,164.309 178.215,161.356 181.258 C 159.572 183.096,156.962 185.716,155.556 187.080 C 154.150 188.445,152.820 189.752,152.600 189.987 C 152.380 190.221,149.770 192.816,146.800 195.753 C 143.830 198.690,140.995 201.522,140.501 202.046 C 139.439 203.172,139.249 203.364,134.674 207.902 C 125.809 216.696,114.309 228.215,111.356 231.258 C 109.572 233.096,106.962 235.716,105.556 237.080 C 104.150 238.445,102.820 239.752,102.600 239.987 C 102.380 240.221,99.770 242.816,96.800 245.753 C 93.830 248.690,90.995 251.522,90.501 252.046 C 89.439 253.172,89.249 253.364,84.674 257.902 C 75.809 266.696,64.309 278.215,61.356 281.258 C 59.572 283.096,56.939 285.704,55.505 287.053 C 54.071 288.403,52.831 289.666,52.749 289.861 C 52.667 290.055,52.093 290.607,51.473 291.086 C 50.854 291.565,49.819 292.621,49.173 293.434 L 48.000 294.910 48.000 323.175 C 48.000 344.626,48.116 351.556,48.480 351.920 C 48.844 352.284,55.649 352.400,76.661 352.400 C 104.927 352.400,106.015 352.346,106.920 350.908 C 107.096 350.629,107.456 350.399,107.720 350.397 C 107.984 350.396,108.510 349.851,108.888 349.186 C 109.267 348.521,110.121 347.667,110.786 347.288 C 111.451 346.910,111.996 346.409,111.997 346.175 C 111.999 345.942,114.475 343.361,117.500 340.440 C 120.525 337.519,123.150 334.980,123.334 334.798 C 124.551 333.591,134.543 323.589,134.860 323.260 C 141.339 316.539,149.601 308.400,149.945 308.400 C 150.195 308.400,150.400 308.205,150.400 307.968 C 150.400 307.467,157.370 300.401,157.868 300.397 C 158.050 300.396,158.510 299.851,158.888 299.186 C 159.267 298.521,160.121 297.667,160.786 297.288 C 161.451 296.910,161.996 296.409,161.997 296.175 C 161.999 295.942,164.475 293.361,167.500 290.440 C 170.525 287.519,173.180 284.950,173.400 284.732 C 174.829 283.312,184.420 273.712,184.794 273.326 C 192.137 265.748,199.596 258.400,199.945 258.400 C 200.195 258.400,200.400 258.205,200.400 257.968 C 200.400 257.403,207.403 250.400,207.968 250.400 C 208.205 250.400,208.400 250.197,208.400 249.948 C 208.400 249.608,217.530 240.333,223.179 234.934 C 223.720 234.417,234.279 223.864,234.786 223.334 C 240.254 217.614,249.607 208.400,249.945 208.400 C 250.195 208.400,250.400 208.205,250.400 207.968 C 250.400 207.467,257.370 200.401,257.868 200.397 C 258.050 200.396,258.510 199.851,258.888 199.186 C 259.267 198.521,260.121 197.667,260.786 197.288 C 261.451 196.910,261.996 196.409,261.997 196.175 C 261.999 195.942,264.475 193.361,267.500 190.440 C 270.525 187.519,273.150 184.980,273.334 184.798 C 274.551 183.591,284.543 173.589,284.860 173.260 C 291.339 166.539,299.601 158.400,299.945 158.400 C 300.195 158.400,300.400 158.205,300.400 157.968 C 300.400 157.467,307.370 150.401,307.868 150.397 C 308.050 150.396,308.510 149.851,308.888 149.186 C 309.267 148.521,310.121 147.667,310.786 147.288 C 311.451 146.910,311.996 146.409,311.997 146.175 C 311.999 145.942,314.475 143.361,317.500 140.440 C 320.525 137.519,323.150 134.980,323.334 134.798 C 324.555 133.587,334.529 123.603,334.786 123.334 C 340.254 117.614,349.607 108.400,349.945 108.400 C 350.195 108.400,350.400 108.139,350.400 107.820 C 350.400 107.501,350.629 107.096,350.908 106.920 C 352.346 106.015,352.400 104.927,352.400 76.661 C 352.400 55.649,352.284 48.844,351.920 48.480 C 351.556 48.116,344.626 48.000,323.175 48.000 L 294.910 48.000 293.372 49.222 M350.967 48.643 C 351.536 48.861,351.600 51.700,351.600 76.629 L 351.600 104.372 350.400 105.600 C 349.740 106.275,349.200 107.070,349.200 107.365 C 349.200 107.661,348.666 108.124,348.013 108.394 C 347.361 108.665,346.717 109.231,346.583 109.654 C 346.449 110.076,345.862 110.732,345.278 111.111 C 343.885 112.016,338.617 117.247,338.070 118.269 C 337.835 118.708,336.999 119.502,336.211 120.034 C 335.424 120.565,334.685 121.365,334.569 121.812 C 334.453 122.258,333.868 122.840,333.269 123.105 C 332.670 123.371,331.859 124.130,331.467 124.794 C 331.075 125.457,330.611 126.000,330.435 126.000 C 330.017 126.000,326.000 130.017,326.000 130.435 C 326.000 130.611,325.457 131.075,324.794 131.467 C 324.130 131.859,323.366 132.679,323.096 133.290 C 322.826 133.900,322.407 134.400,322.166 134.400 C 321.619 134.400,312.045 143.811,311.108 145.270 C 310.730 145.858,310.076 146.449,309.654 146.583 C 309.231 146.717,308.665 147.361,308.394 148.013 C 308.124 148.666,307.680 149.200,307.408 149.200 C 306.762 149.200,299.200 156.762,299.200 157.408 C 299.200 157.680,298.666 158.124,298.013 158.394 C 297.361 158.665,296.717 159.231,296.583 159.654 C 296.449 160.076,295.862 160.732,295.278 161.111 C 293.885 162.016,288.617 167.247,288.070 168.269 C 287.835 168.708,286.999 169.502,286.211 170.034 C 285.424 170.565,284.685 171.365,284.569 171.812 C 284.453 172.258,283.868 172.840,283.269 173.105 C 282.670 173.371,281.859 174.130,281.467 174.794 C 281.075 175.457,280.611 176.000,280.435 176.000 C 280.017 176.000,276.000 180.017,276.000 180.435 C 276.000 180.611,275.457 181.075,274.794 181.467 C 274.130 181.859,273.366 182.679,273.096 183.290 C 272.826 183.900,272.407 184.400,272.166 184.400 C 271.619 184.400,262.045 193.811,261.108 195.270 C 260.730 195.858,260.076 196.449,259.654 196.583 C 259.231 196.717,258.665 197.361,258.394 198.013 C 258.124 198.666,257.680 199.200,257.408 199.200 C 256.762 199.200,249.200 206.762,249.200 207.408 C 249.200 207.680,248.666 208.124,248.013 208.394 C 247.361 208.665,246.717 209.231,246.583 209.654 C 246.449 210.076,245.862 210.732,245.278 211.111 C 243.885 212.016,238.617 217.247,238.070 218.269 C 237.835 218.708,236.999 219.502,236.211 220.034 C 235.424 220.565,234.685 221.365,234.569 221.812 C 234.453 222.258,233.868 222.840,233.269 223.105 C 232.670 223.371,231.859 224.130,231.467 224.794 C 231.075 225.457,230.611 226.000,230.435 226.000 C 230.017 226.000,226.000 230.017,226.000 230.435 C 226.000 230.611,225.457 231.075,224.794 231.467 C 224.130 231.859,223.366 232.679,223.096 233.290 C 222.826 233.900,222.407 234.400,222.166 234.400 C 221.619 234.400,212.045 243.811,211.108 245.270 C 210.730 245.858,210.076 246.449,209.654 246.583 C 209.231 246.717,208.665 247.361,208.394 248.013 C 208.124 248.666,207.680 249.200,207.408 249.200 C 206.762 249.200,199.200 256.762,199.200 257.408 C 199.200 257.680,198.666 258.124,198.013 258.394 C 197.361 258.665,196.717 259.231,196.583 259.654 C 196.449 260.076,195.862 260.732,195.278 261.111 C 193.885 262.016,188.617 267.247,188.070 268.269 C 187.835 268.708,186.999 269.502,186.211 270.034 C 185.424 270.565,184.685 271.365,184.569 271.812 C 184.453 272.258,183.868 272.840,183.269 273.105 C 182.670 273.371,181.859 274.130,181.467 274.794 C 181.075 275.457,180.611 276.000,180.435 276.000 C 180.017 276.000,176.000 280.017,176.000 280.435 C 176.000 280.611,175.457 281.075,174.794 281.467 C 174.130 281.859,173.366 282.679,173.096 283.290 C 172.826 283.900,172.407 284.400,172.166 284.400 C 171.619 284.400,162.045 293.811,161.108 295.270 C 160.730 295.858,160.076 296.449,159.654 296.583 C 159.231 296.717,158.665 297.361,158.394 298.013 C 158.124 298.666,157.680 299.200,157.408 299.200 C 156.762 299.200,149.200 306.762,149.200 307.408 C 149.200 307.680,148.666 308.124,148.013 308.394 C 147.361 308.665,146.717 309.231,146.583 309.654 C 146.449 310.076,145.862 310.732,145.278 311.111 C 143.885 312.016,138.617 317.247,138.070 318.269 C 137.835 318.708,136.999 319.502,136.211 320.034 C 135.424 320.565,134.685 321.365,134.569 321.812 C 134.453 322.258,133.868 322.840,133.269 323.105 C 132.670 323.371,131.859 324.130,131.467 324.794 C 131.075 325.457,130.611 326.000,130.435 326.000 C 130.017 326.000,126.000 330.017,126.000 330.435 C 126.000 330.611,125.457 331.075,124.794 331.467 C 124.130 331.859,123.366 332.679,123.096 333.290 C 122.826 333.900,122.407 334.400,122.166 334.400 C 121.619 334.400,112.045 343.811,111.108 345.270 C 110.730 345.858,110.076 346.449,109.654 346.583 C 109.231 346.717,108.665 347.361,108.394 348.013 C 108.124 348.666,107.661 349.200,107.365 349.200 C 107.070 349.200,106.275 349.740,105.600 350.400 L 104.372 351.600 76.629 351.600 C 51.700 351.600,48.861 351.536,48.643 350.967 C 48.509 350.619,48.400 338.111,48.400 323.171 L 48.400 296.008 53.451 291.055 C 56.229 288.331,58.753 285.854,59.061 285.551 C 59.368 285.248,61.695 282.840,64.233 280.200 C 66.770 277.560,69.000 275.250,69.189 275.066 C 69.660 274.606,74.624 269.640,75.188 269.066 C 75.439 268.810,77.701 266.620,80.216 264.200 C 85.672 258.948,83.768 260.832,97.400 247.200 C 103.560 241.040,108.829 235.775,109.110 235.500 C 109.390 235.225,111.695 232.840,114.233 230.200 C 116.770 227.560,119.000 225.250,119.189 225.066 C 119.660 224.606,124.624 219.640,125.188 219.066 C 125.439 218.809,127.701 216.620,130.216 214.200 C 135.672 208.948,133.768 210.832,147.400 197.200 C 153.560 191.040,158.829 185.775,159.110 185.500 C 159.390 185.225,161.695 182.840,164.233 180.200 C 166.770 177.560,168.971 175.279,169.123 175.131 C 169.504 174.761,174.478 169.787,175.122 169.131 C 175.409 168.839,177.701 166.620,180.216 164.200 C 185.672 158.948,183.768 160.832,197.400 147.200 C 210.897 133.703,208.914 135.708,214.200 130.216 C 216.620 127.701,218.809 125.439,219.066 125.188 C 219.671 124.594,224.594 119.671,225.188 119.066 C 225.439 118.810,227.701 116.620,230.216 114.200 C 235.672 108.948,233.768 110.832,247.400 97.200 C 253.560 91.040,258.829 85.775,259.110 85.500 C 259.390 85.225,261.695 82.840,264.233 80.200 C 266.770 77.560,269.030 75.220,269.254 75.000 C 269.815 74.450,274.770 69.494,275.253 69.000 C 275.468 68.780,277.701 66.620,280.216 64.200 C 285.886 58.742,285.241 59.382,291.104 53.402 L 296.008 48.400 323.171 48.400 C 338.111 48.400,350.619 48.509,350.967 48.643 M304.182 217.600 C 304.182 226.510,304.235 230.155,304.300 225.700 C 304.364 221.245,304.364 213.955,304.300 209.500 C 304.235 205.045,304.182 208.690,304.182 217.600 " stroke="none" fill="#258f87" fill-rule="evenodd"></path><path id="path4" d="M48.229 48.229 C 47.592 48.865,47.214 240.321,47.845 242.672 C 48.185 243.939,50.400 244.369,50.400 243.168 C 50.400 242.978,52.043 241.242,54.051 239.311 C 58.233 235.290,62.538 231.001,66.660 226.750 C 68.233 225.127,70.528 222.859,71.760 221.708 C 72.992 220.558,74.000 219.433,74.000 219.208 C 74.000 218.984,74.166 218.800,74.369 218.800 C 74.850 218.800,77.200 216.450,77.200 215.969 C 77.200 215.766,77.389 215.600,77.621 215.600 C 77.852 215.600,81.587 212.052,85.921 207.715 L 93.800 199.829 93.906 147.480 C 93.995 103.257,94.099 95.044,94.571 94.571 C 95.044 94.099,103.228 93.995,147.275 93.906 L 199.418 93.800 202.880 90.400 C 204.784 88.530,207.660 85.721,209.271 84.157 C 210.882 82.593,213.851 79.623,215.869 77.557 C 217.886 75.491,220.541 72.859,221.769 71.708 C 222.996 70.558,224.000 69.526,224.000 69.415 C 224.000 69.304,225.292 67.995,226.872 66.506 C 233.707 60.065,244.000 49.554,244.000 49.015 C 244.000 48.692,243.652 48.242,243.226 48.014 C 241.788 47.245,49.001 47.457,48.229 48.229 M242.000 48.981 C 242.000 49.270,238.362 53.214,236.500 54.944 C 235.565 55.812,234.800 56.768,234.800 57.068 C 234.800 57.368,234.180 57.909,233.422 58.270 C 232.650 58.638,231.838 59.427,231.574 60.063 C 231.315 60.689,230.875 61.200,230.596 61.200 C 229.898 61.200,223.368 67.612,223.059 68.600 C 222.922 69.040,222.278 69.636,221.628 69.924 C 220.978 70.211,220.212 70.976,219.926 71.623 C 219.639 72.270,219.169 72.800,218.881 72.800 C 218.207 72.800,211.200 79.835,211.200 80.512 C 211.200 80.794,210.657 81.230,209.993 81.480 C 209.200 81.779,208.581 82.427,208.188 83.368 C 207.815 84.260,207.317 84.800,206.868 84.800 C 206.472 84.800,205.614 85.385,204.963 86.100 C 204.311 86.815,202.852 88.249,201.720 89.287 C 200.588 90.325,199.552 91.520,199.418 91.944 C 199.020 93.198,199.433 93.189,145.780 93.195 C 106.171 93.199,94.048 93.312,93.680 93.680 C 93.312 94.048,93.200 106.181,93.200 145.854 C 93.200 195.877,93.118 199.600,92.018 199.600 C 91.797 199.600,90.848 200.455,89.908 201.500 C 88.969 202.545,87.435 204.107,86.500 204.972 C 85.565 205.837,84.800 206.785,84.800 207.078 C 84.800 207.372,84.180 207.909,83.422 208.270 C 82.650 208.638,81.838 209.427,81.574 210.063 C 81.315 210.689,80.875 211.200,80.596 211.200 C 79.898 211.200,73.368 217.612,73.059 218.600 C 72.922 219.040,72.278 219.636,71.628 219.924 C 70.978 220.211,70.212 220.976,69.926 221.623 C 69.639 222.270,69.166 222.800,68.873 222.800 C 68.186 222.800,61.200 229.892,61.200 230.590 C 61.200 230.883,60.667 231.307,60.016 231.534 C 59.230 231.808,58.633 232.426,58.237 233.373 C 57.855 234.287,57.372 234.800,56.894 234.800 C 56.483 234.800,55.611 235.385,54.955 236.100 C 53.318 237.886,49.319 241.600,49.034 241.600 C 48.905 241.600,48.800 198.220,48.800 145.200 L 48.800 48.800 145.400 48.800 C 198.530 48.800,242.000 48.882,242.000 48.981 M341.500 164.741 C 336.715 169.530,332.800 173.663,332.800 173.925 C 332.800 174.186,332.610 174.400,332.377 174.400 C 332.144 174.400,329.276 177.055,326.003 180.300 C 322.731 183.545,319.636 186.570,319.126 187.023 C 318.617 187.476,315.928 190.199,313.151 193.075 C 310.374 195.950,307.764 198.492,307.351 198.723 C 306.624 199.130,306.594 200.823,306.400 252.152 C 306.239 294.902,306.099 305.261,305.680 305.680 C 305.260 306.100,295.113 306.220,252.777 306.304 L 200.394 306.409 191.597 315.230 C 186.759 320.082,182.800 324.220,182.800 324.426 C 182.800 324.632,182.635 324.800,182.432 324.800 C 181.953 324.800,174.800 331.953,174.800 332.432 C 174.800 332.635,174.620 332.800,174.399 332.800 C 174.179 332.800,169.942 336.871,164.984 341.847 C 156.114 350.748,155.979 350.909,156.585 351.833 C 156.923 352.349,157.200 353.048,157.200 353.386 C 157.200 353.936,167.256 354.000,254.200 354.000 C 348.217 354.000,351.200 353.977,351.200 353.262 C 351.200 352.370,352.409 351.200,353.331 351.200 C 353.954 351.200,354.000 344.563,354.000 254.037 C 354.000 160.278,353.975 156.882,353.272 157.065 C 352.872 157.170,352.310 156.973,352.023 156.628 C 351.018 155.417,350.131 156.101,341.500 164.741 M351.391 159.700 C 351.523 160.635,351.579 204.150,351.515 256.400 L 351.400 351.400 256.059 351.501 C 203.622 351.556,160.190 351.465,159.544 351.297 L 158.370 350.993 161.965 347.197 C 163.942 345.108,165.974 342.992,166.480 342.493 C 167.532 341.456,168.019 340.970,169.293 339.686 C 169.792 339.183,174.385 334.648,179.500 329.607 C 184.615 324.566,188.800 320.246,188.800 320.007 C 188.800 319.769,189.422 319.206,190.182 318.757 C 190.943 318.309,191.676 317.590,191.813 317.160 C 191.949 316.730,192.516 316.080,193.072 315.716 C 194.504 314.778,201.029 308.314,201.268 307.597 C 201.442 307.073,207.914 306.975,254.033 306.800 L 306.600 306.600 306.800 253.833 C 306.961 211.420,307.101 201.033,307.513 200.896 C 307.795 200.802,309.685 199.009,311.713 196.911 C 313.741 194.814,316.390 192.123,317.600 190.932 C 333.829 174.956,338.800 169.964,338.800 169.645 C 338.800 169.436,339.421 168.882,340.179 168.413 C 340.938 167.944,341.665 167.225,341.795 166.816 C 341.925 166.407,342.429 165.804,342.916 165.477 C 343.402 165.150,345.330 163.356,347.200 161.489 C 351.214 157.483,351.086 157.538,351.391 159.700 " stroke="none" fill="#258f87" fill-rule="evenodd"></path></g></svg>