<svg id="svg" version="1.1" xmlns="http://www.w3.org/2000/svg" xmlns:xlink="http://www.w3.org/1999/xlink" width="400" height="400" viewBox="0, 0, 400,400"><g id="svgg"><path id="path0" d="M45.867 45.867 C 45.544 46.189,45.540 327.714,45.862 329.278 C 46.063 330.251,47.080 330.826,48.867 330.977 C 49.013 330.990,49.283 331.164,49.467 331.364 C 49.658 331.574,49.599 331.613,49.328 331.458 C 49.068 331.309,48.752 331.354,48.626 331.558 C 48.499 331.763,48.712 331.880,49.098 331.819 C 49.484 331.759,49.751 331.430,49.690 331.090 C 49.612 330.646,49.811 330.530,50.390 330.682 C 51.034 330.850,51.201 330.699,51.206 329.947 C 51.214 328.652,51.713 327.972,52.708 327.897 C 53.168 327.862,53.466 327.707,53.370 327.551 C 53.274 327.396,53.386 327.205,53.619 327.127 C 53.978 327.007,54.224 326.356,54.369 325.145 C 54.386 325.004,55.027 324.771,55.794 324.627 C 56.561 324.484,57.170 324.239,57.147 324.083 C 56.960 322.812,57.283 322.000,57.976 322.000 C 58.403 322.000,58.866 321.817,59.004 321.593 C 59.142 321.370,59.411 321.283,59.602 321.401 C 59.792 321.519,60.005 321.027,60.074 320.308 C 60.184 319.171,60.372 318.974,61.516 318.800 C 62.239 318.690,62.824 318.465,62.816 318.300 C 62.807 318.135,62.823 317.910,62.850 317.800 C 62.877 317.690,62.945 317.420,63.000 317.200 C 63.055 316.980,63.123 316.631,63.150 316.425 C 63.178 316.219,63.785 315.994,64.500 315.925 C 65.634 315.816,65.816 315.639,65.923 314.538 C 66.019 313.549,66.278 313.217,67.120 313.006 C 68.525 312.653,69.200 312.067,69.200 311.201 C 69.200 310.745,69.612 310.418,70.379 310.264 C 71.345 310.071,71.606 309.773,71.824 308.614 C 72.031 307.507,72.279 307.200,72.965 307.200 C 74.095 307.200,74.800 306.478,74.800 305.320 C 74.800 304.651,75.045 304.383,75.700 304.339 C 77.372 304.226,77.543 304.190,77.838 303.895 C 78.001 303.733,77.933 303.600,77.687 303.600 C 76.926 303.600,77.962 301.303,78.826 301.077 C 79.252 300.966,79.500 301.038,79.377 301.237 C 79.254 301.437,79.433 301.600,79.776 301.600 C 80.119 301.600,80.376 301.465,80.346 301.300 C 80.127 300.070,80.979 298.400,81.826 298.400 C 82.336 298.400,82.866 298.217,83.004 297.993 C 83.142 297.770,83.407 297.681,83.593 297.796 C 83.779 297.911,83.846 297.464,83.741 296.802 C 83.601 295.911,83.713 295.587,84.176 295.550 C 85.898 295.412,86.705 294.777,86.648 293.605 C 86.610 292.814,86.803 292.598,87.583 292.555 C 88.124 292.526,88.634 292.297,88.717 292.048 C 88.800 291.799,89.033 291.697,89.234 291.821 C 89.435 291.945,89.600 291.497,89.600 290.824 C 89.600 289.615,89.861 289.430,91.344 289.586 C 91.788 289.633,91.980 289.491,91.820 289.233 C 91.670 288.990,91.839 288.800,92.203 288.800 C 92.639 288.800,92.782 288.569,92.636 288.100 C 92.374 287.258,92.955 286.202,93.496 286.536 C 94.055 286.881,95.225 285.910,95.360 284.989 C 95.424 284.555,95.819 284.135,96.238 284.055 C 96.657 283.976,97.146 283.657,97.325 283.347 C 97.503 283.037,97.818 282.888,98.025 283.015 C 98.231 283.143,98.400 282.697,98.400 282.024 C 98.400 280.858,98.939 280.526,100.476 280.745 C 100.781 280.788,101.339 279.335,101.376 278.400 C 101.389 278.070,101.781 277.781,102.246 277.757 C 103.492 277.694,103.870 277.349,104.133 276.036 C 104.316 275.119,104.614 274.828,105.469 274.728 C 107.175 274.529,107.118 277.380,107.160 189.900 L 107.200 107.200 189.900 107.153 C 267.840 107.108,275.149 107.034,274.900 106.296 C 274.501 105.115,274.888 104.362,276.008 104.138 C 277.349 103.870,277.694 103.497,277.757 102.246 C 277.781 101.781,278.070 101.389,278.400 101.376 C 279.335 101.339,280.788 100.781,280.745 100.476 C 280.526 98.939,280.858 98.400,282.024 98.400 C 282.743 98.400,283.145 98.234,282.998 97.997 C 282.861 97.776,283.031 97.486,283.375 97.354 C 283.719 97.222,284.000 96.689,284.000 96.170 C 284.000 95.567,284.185 95.296,284.511 95.421 C 285.153 95.667,286.415 94.773,286.534 93.989 C 286.701 92.880,287.261 92.365,288.034 92.611 C 288.574 92.782,288.800 92.662,288.800 92.203 C 288.800 91.846,288.980 91.664,289.200 91.800 C 289.433 91.944,289.600 91.537,289.600 90.824 C 289.600 89.725,289.725 89.600,290.824 89.600 C 291.497 89.600,291.945 89.435,291.821 89.234 C 291.697 89.033,291.799 88.800,292.048 88.717 C 292.297 88.634,292.526 88.124,292.555 87.583 C 292.598 86.803,292.814 86.610,293.605 86.648 C 294.777 86.705,295.412 85.898,295.550 84.176 C 295.587 83.715,295.911 83.601,296.788 83.739 C 297.441 83.842,297.960 83.808,297.940 83.663 C 297.921 83.518,297.949 83.265,298.003 83.100 C 298.189 82.526,298.300 81.997,298.350 81.450 C 298.377 81.147,298.940 80.792,299.600 80.660 C 300.327 80.515,300.800 80.170,300.800 79.786 C 300.800 79.438,300.963 79.254,301.163 79.377 C 301.362 79.500,301.441 79.280,301.339 78.888 C 301.201 78.359,301.572 77.990,302.776 77.459 C 304.032 76.905,304.400 76.522,304.400 75.771 C 304.400 75.024,304.613 74.800,305.320 74.800 C 306.478 74.800,307.200 74.095,307.200 72.965 C 307.200 72.279,307.507 72.031,308.614 71.824 C 309.773 71.606,310.071 71.345,310.264 70.379 C 310.418 69.612,310.745 69.200,311.201 69.200 C 312.067 69.200,312.653 68.525,313.006 67.120 C 313.217 66.278,313.549 66.019,314.538 65.923 C 315.678 65.812,315.812 65.657,315.923 64.321 C 316.014 63.220,316.194 62.900,316.628 63.066 C 316.948 63.189,317.478 63.067,317.805 62.796 C 318.132 62.524,318.424 62.459,318.453 62.651 C 318.482 62.843,318.617 62.370,318.753 61.600 C 318.889 60.830,319.225 60.178,319.500 60.150 C 319.775 60.123,320.371 60.078,320.824 60.050 C 321.277 60.023,321.536 59.820,321.400 59.600 C 321.264 59.380,321.343 59.200,321.576 59.200 C 321.809 59.200,322.000 58.750,322.000 58.200 C 322.000 57.359,322.188 57.200,323.182 57.200 C 324.216 57.200,324.397 57.025,324.626 55.800 C 324.771 55.030,325.004 54.386,325.145 54.369 C 326.356 54.224,327.007 53.978,327.127 53.619 C 327.205 53.386,327.396 53.274,327.551 53.370 C 327.707 53.466,327.862 53.168,327.897 52.708 C 327.972 51.713,328.652 51.214,329.947 51.206 C 330.699 51.201,330.850 51.034,330.682 50.390 C 330.530 49.811,330.646 49.612,331.090 49.690 C 331.430 49.751,331.759 49.484,331.819 49.098 C 331.880 48.712,331.763 48.499,331.558 48.626 C 331.354 48.752,331.309 49.068,331.458 49.328 C 331.613 49.599,331.574 49.658,331.364 49.467 C 331.164 49.283,330.990 49.013,330.977 48.867 C 330.826 47.080,330.251 46.063,329.278 45.862 C 327.714 45.540,46.189 45.544,45.867 45.867 " stroke="none" fill="#FFF" fill-rule="evenodd"></path><path id="path1" d="M331.732 46.634 C 331.536 47.144,331.423 47.163,331.150 46.734 C 330.886 46.316,330.811 46.312,330.806 46.713 C 330.803 46.994,331.056 47.323,331.369 47.443 C 332.325 47.810,332.424 48.776,331.591 49.609 C 331.156 50.044,330.991 50.400,331.224 50.400 C 331.457 50.400,331.512 50.625,331.347 50.900 C 331.174 51.187,331.361 51.144,331.785 50.800 C 332.191 50.470,332.600 50.260,332.695 50.333 C 332.789 50.407,332.987 50.333,333.133 50.169 C 333.280 50.006,333.175 50.001,332.900 50.159 C 332.587 50.339,332.400 50.205,332.400 49.800 C 332.400 49.444,332.568 49.256,332.772 49.383 C 332.977 49.509,333.275 49.402,333.434 49.145 C 333.615 48.852,333.550 48.784,333.262 48.962 C 332.985 49.133,332.800 48.987,332.800 48.600 C 332.800 48.189,332.982 48.062,333.300 48.253 C 333.699 48.493,333.700 48.429,333.303 47.940 C 333.030 47.603,332.940 47.193,333.103 47.030 C 333.267 46.867,333.130 46.793,332.800 46.867 C 332.470 46.940,332.245 46.775,332.300 46.500 C 332.443 45.783,332.020 45.882,331.732 46.634 M328.658 52.336 C 327.736 53.355,328.402 54.154,329.520 53.371 C 330.004 53.032,330.400 52.604,330.400 52.420 C 330.400 51.733,329.253 51.678,328.658 52.336 M324.873 55.679 C 324.773 56.992,325.540 57.171,326.538 56.069 C 327.526 54.977,327.353 54.376,326.079 54.473 C 325.162 54.543,324.943 54.762,324.873 55.679 M322.442 57.749 C 321.986 58.299,322.224 59.600,322.781 59.600 C 323.227 59.600,324.400 58.201,324.400 57.669 C 324.400 57.021,322.998 57.079,322.442 57.749 M319.467 60.667 C 318.755 61.379,319.193 62.832,319.991 62.405 C 321.371 61.666,321.807 60.400,320.681 60.400 C 320.160 60.400,319.613 60.520,319.467 60.667 M316.480 63.680 C 315.832 64.328,315.870 65.600,316.538 65.600 C 317.525 65.600,318.663 64.011,317.984 63.582 C 317.219 63.097,317.052 63.108,316.480 63.680 M313.642 66.549 C 313.186 67.099,313.424 68.400,313.981 68.400 C 314.427 68.400,315.600 67.001,315.600 66.469 C 315.600 65.821,314.198 65.879,313.642 66.549 M348.741 81.341 C 348.708 81.593,348.645 82.070,348.600 82.400 C 348.555 82.730,348.492 83.225,348.459 83.500 C 348.424 83.793,347.822 84.000,347.000 84.000 C 345.667 84.000,345.600 84.067,345.600 85.400 C 345.600 86.733,345.533 86.800,344.200 86.800 C 342.867 86.800,342.800 86.867,342.800 88.200 C 342.800 89.317,342.638 89.610,342.000 89.650 C 340.685 89.732,340.482 89.785,340.133 90.133 C 339.785 90.482,339.732 90.685,339.650 92.000 C 339.610 92.638,339.317 92.800,338.200 92.800 C 336.867 92.800,336.800 92.867,336.800 94.200 C 336.800 95.533,336.733 95.600,335.400 95.600 C 334.067 95.600,334.000 95.667,334.000 97.000 C 334.000 98.288,333.691 98.619,332.659 98.434 C 331.947 98.306,330.781 98.880,330.837 99.330 C 331.065 101.180,330.799 101.600,329.400 101.600 C 328.067 101.600,328.000 101.667,328.000 103.000 C 328.000 104.333,327.933 104.400,326.600 104.400 C 325.230 104.400,325.200 104.435,325.200 106.024 C 325.200 107.030,325.044 107.551,324.790 107.394 C 323.640 106.683,322.000 107.646,322.000 109.032 C 322.000 110.329,321.927 110.400,320.600 110.400 C 319.267 110.400,319.200 110.467,319.200 111.800 C 319.200 113.170,318.559 113.541,316.700 113.247 C 316.444 113.207,316.206 115.168,316.353 116.100 C 316.379 116.265,316.265 116.379,316.100 116.353 C 315.168 116.206,313.207 116.444,313.247 116.700 C 313.541 118.559,313.170 119.200,311.800 119.200 C 310.467 119.200,310.400 119.267,310.400 120.600 C 310.400 121.927,310.329 122.000,309.032 122.000 C 307.646 122.000,306.683 123.640,307.394 124.790 C 307.551 125.044,307.030 125.200,306.024 125.200 L 304.400 125.200 304.400 214.800 L 304.400 304.400 214.800 304.400 L 125.200 304.400 125.200 306.024 C 125.200 307.030,125.044 307.551,124.790 307.394 C 123.640 306.683,122.000 307.646,122.000 309.032 C 122.000 310.329,121.927 310.400,120.600 310.400 C 119.267 310.400,119.200 310.467,119.200 311.800 C 119.200 313.170,118.559 313.541,116.700 313.247 C 116.444 313.207,116.206 315.168,116.353 316.100 C 116.379 316.265,116.265 316.379,116.100 316.353 C 115.168 316.206,113.207 316.444,113.247 316.700 C 113.541 318.559,113.170 319.200,111.800 319.200 C 110.467 319.200,110.400 319.267,110.400 320.600 C 110.400 321.927,110.329 322.000,109.032 322.000 C 107.646 322.000,106.683 323.640,107.394 324.790 C 107.551 325.044,107.030 325.200,106.024 325.200 C 104.435 325.200,104.400 325.230,104.400 326.600 C 104.400 327.933,104.333 328.000,103.000 328.000 C 101.667 328.000,101.600 328.067,101.600 329.400 C 101.600 330.799,101.180 331.065,99.330 330.837 C 98.880 330.781,98.306 331.947,98.434 332.659 C 98.619 333.691,98.288 334.000,97.000 334.000 C 95.667 334.000,95.600 334.067,95.600 335.400 C 95.600 336.733,95.533 336.800,94.200 336.800 C 92.867 336.800,92.800 336.867,92.800 338.200 C 92.800 339.317,92.638 339.610,92.000 339.650 C 90.685 339.732,90.482 339.785,90.133 340.133 C 89.785 340.482,89.732 340.685,89.650 342.000 C 89.610 342.638,89.317 342.800,88.200 342.800 C 86.867 342.800,86.800 342.867,86.800 344.200 C 86.800 345.533,86.733 345.600,85.400 345.600 C 84.067 345.600,84.000 345.667,84.000 347.000 C 84.000 348.288,83.691 348.619,82.659 348.434 C 81.252 348.182,80.881 348.847,80.941 351.514 L 81.000 354.200 217.701 354.301 L 354.401 354.401 354.301 217.701 L 354.200 81.000 351.500 80.941 C 349.729 80.902,348.780 81.039,348.741 81.341 M163.298 205.698 L 163.400 248.200 205.902 248.302 L 248.404 248.404 248.302 205.902 L 248.200 163.400 205.698 163.298 L 163.196 163.196 163.298 205.698 M66.480 313.680 C 65.832 314.328,65.870 315.600,66.538 315.600 C 67.525 315.600,68.663 314.011,67.984 313.582 C 67.219 313.097,67.052 313.108,66.480 313.680 M63.642 316.549 C 63.186 317.099,63.424 318.400,63.981 318.400 C 64.427 318.400,65.600 317.001,65.600 316.469 C 65.600 315.821,64.198 315.879,63.642 316.549 M60.667 319.467 C 60.520 319.613,60.400 320.160,60.400 320.681 C 60.400 321.807,61.666 321.371,62.405 319.991 C 62.832 319.193,61.379 318.755,60.667 319.467 M57.680 322.480 C 57.032 323.128,57.070 324.400,57.738 324.400 C 58.725 324.400,59.863 322.811,59.184 322.382 C 58.419 321.897,58.252 321.908,57.680 322.480 M54.473 326.079 C 54.373 327.392,55.140 327.571,56.138 326.469 C 57.126 325.377,56.953 324.776,55.679 324.873 C 54.762 324.943,54.543 325.162,54.473 326.079 M52.258 328.736 C 51.875 329.159,51.768 329.624,51.976 329.960 C 52.361 330.585,53.021 330.281,53.591 329.218 C 54.134 328.202,53.084 327.823,52.258 328.736 M46.721 331.072 C 47.112 331.229,47.062 331.422,46.521 331.846 C 45.984 332.267,45.953 332.385,46.400 332.306 C 46.756 332.243,46.946 332.444,46.867 332.800 C 46.793 333.130,46.867 333.267,47.030 333.103 C 47.193 332.940,47.603 333.030,47.940 333.303 C 48.429 333.700,48.493 333.699,48.253 333.300 C 48.062 332.982,48.189 332.800,48.600 332.800 C 48.987 332.800,49.133 332.985,48.962 333.262 C 48.784 333.550,48.852 333.615,49.145 333.434 C 49.402 333.275,49.509 332.977,49.383 332.772 C 49.256 332.568,49.444 332.400,49.800 332.400 C 50.205 332.400,50.339 332.587,50.159 332.900 C 49.992 333.190,50.024 333.260,50.236 333.067 C 50.436 332.883,50.603 332.613,50.606 332.467 C 50.609 332.320,50.772 331.947,50.968 331.638 C 51.212 331.252,51.179 331.166,50.862 331.362 C 50.608 331.519,50.400 331.457,50.400 331.224 C 50.400 330.991,50.044 331.156,49.609 331.591 C 48.776 332.424,47.810 332.325,47.443 331.369 C 47.323 331.056,46.994 330.814,46.713 330.832 C 46.305 330.857,46.307 330.906,46.721 331.072 " stroke="none" fill="#d08f4c" fill-rule="evenodd"></path><path id="path2" d="M329.474 45.879 C 330.051 45.991,330.435 46.447,330.605 47.224 C 330.875 48.450,331.351 48.726,331.838 47.938 C 332.028 47.631,331.946 47.586,331.594 47.804 C 331.206 48.044,331.135 47.947,331.327 47.445 C 331.505 46.982,331.440 46.852,331.127 47.045 C 330.823 47.233,330.747 47.114,330.907 46.699 C 331.163 46.030,330.425 45.560,329.267 45.654 C 328.854 45.688,328.932 45.774,329.474 45.879 M328.798 51.500 C 328.797 51.665,328.248 52.385,327.578 53.100 C 326.490 54.261,326.445 54.400,327.160 54.400 C 327.600 54.400,328.104 54.159,328.280 53.865 C 328.456 53.570,328.938 53.145,329.351 52.920 C 329.851 52.648,329.952 52.417,329.651 52.232 C 329.403 52.078,329.200 52.143,329.200 52.376 C 329.200 52.609,328.998 52.800,328.751 52.800 C 328.433 52.800,328.441 52.632,328.780 52.224 C 329.043 51.907,329.545 51.757,329.895 51.892 C 330.317 52.054,330.434 51.978,330.242 51.668 C 329.924 51.153,328.801 51.022,328.798 51.500 M322.136 58.748 C 321.661 59.145,321.394 59.667,321.544 59.909 C 321.708 60.174,322.082 59.884,322.489 59.174 C 322.860 58.528,323.126 58.006,323.081 58.013 C 323.037 58.021,322.611 58.351,322.136 58.748 M319.067 60.267 C 318.920 60.413,318.811 60.908,318.825 61.367 C 318.849 62.133,318.882 62.123,319.234 61.242 C 319.626 60.263,319.544 59.789,319.067 60.267 M317.403 63.451 L 316.747 64.453 317.873 63.748 C 318.493 63.360,319.053 63.010,319.117 62.970 C 319.182 62.931,318.970 62.797,318.647 62.674 C 318.294 62.538,317.799 62.848,317.403 63.451 M313.796 67.207 C 313.658 67.430,313.419 67.535,313.266 67.441 C 313.112 67.346,312.796 67.673,312.563 68.167 C 312.239 68.853,312.260 69.067,312.652 69.067 C 312.934 69.067,313.072 68.917,312.959 68.733 C 312.845 68.550,312.900 68.400,313.080 68.400 C 313.260 68.400,313.632 68.040,313.907 67.600 C 314.182 67.160,314.326 66.800,314.227 66.800 C 314.128 66.800,313.934 66.983,313.796 67.207 M307.200 72.633 C 307.200 72.982,307.414 73.195,307.675 73.108 C 308.417 72.861,308.540 72.000,307.833 72.000 C 307.485 72.000,307.200 72.285,307.200 72.633 M304.400 75.649 C 304.400 76.358,304.499 76.416,305.000 76.000 C 305.330 75.726,305.600 75.344,305.600 75.151 C 305.600 74.958,305.330 74.800,305.000 74.800 C 304.655 74.800,304.400 75.161,304.400 75.649 M302.528 77.512 C 301.762 77.879,301.153 78.531,300.997 79.156 C 300.854 79.726,300.526 80.326,300.268 80.490 C 299.960 80.686,300.040 80.790,300.500 80.794 C 300.885 80.797,301.200 80.620,301.200 80.400 C 301.200 79.630,301.354 79.394,302.373 78.609 C 304.756 76.772,304.805 76.423,302.528 77.512 M298.286 81.593 C 298.110 82.268,298.192 82.325,298.839 81.979 C 299.725 81.505,299.849 80.800,299.047 80.800 C 298.742 80.800,298.400 81.157,298.286 81.593 M296.341 83.468 C 295.661 83.649,295.010 85.200,295.615 85.200 C 295.802 85.200,296.206 84.841,296.513 84.403 C 296.820 83.964,297.219 83.739,297.400 83.903 C 297.581 84.066,297.599 83.975,297.441 83.700 C 297.282 83.425,297.118 83.221,297.076 83.246 C 297.034 83.272,296.703 83.372,296.341 83.468 M292.600 86.800 C 292.168 87.500,292.809 88.091,293.436 87.570 C 293.746 87.313,294.000 86.944,294.000 86.751 C 294.000 86.269,292.905 86.307,292.600 86.800 M86.538 293.017 C 86.408 293.357,86.409 293.742,86.541 293.874 C 86.887 294.220,88.033 293.177,87.772 292.755 C 87.431 292.202,86.799 292.337,86.538 293.017 M84.300 295.503 C 83.598 295.659,83.291 296.800,83.951 296.800 C 84.351 296.800,85.396 295.642,85.157 295.464 C 85.071 295.400,84.685 295.417,84.300 295.503 M80.800 299.033 C 80.800 299.740,81.661 299.617,81.908 298.875 C 81.995 298.614,81.782 298.400,81.433 298.400 C 81.085 298.400,80.800 298.685,80.800 299.033 M77.660 302.400 C 77.430 303.060,77.338 303.600,77.457 303.600 C 77.859 303.600,79.127 301.806,78.939 301.502 C 78.560 300.887,78.067 301.233,77.660 302.400 M75.700 304.282 C 75.205 304.378,74.800 304.713,74.800 305.028 C 74.800 305.793,75.083 305.750,76.291 304.800 C 76.850 304.360,77.149 304.025,76.954 304.054 C 76.759 304.084,76.195 304.187,75.700 304.282 M72.000 307.833 C 72.000 308.540,72.861 308.417,73.108 307.675 C 73.195 307.414,72.982 307.200,72.633 307.200 C 72.285 307.200,72.000 307.485,72.000 307.833 M68.000 312.633 C 67.450 312.939,67.157 313.191,67.349 313.194 C 67.541 313.197,67.451 313.499,67.149 313.864 C 66.646 314.472,66.676 314.481,67.500 313.968 C 67.995 313.660,68.400 313.260,68.400 313.080 C 68.400 312.900,68.550 312.845,68.733 312.959 C 68.917 313.072,69.067 312.903,69.067 312.582 C 69.067 312.262,69.052 312.018,69.033 312.039 C 69.015 312.061,68.550 312.328,68.000 312.633 M63.310 317.509 C 62.789 317.914,62.544 318.396,62.718 318.674 C 62.916 318.990,63.240 318.757,63.689 317.974 C 64.060 317.328,64.326 316.804,64.281 316.809 C 64.237 316.814,63.800 317.129,63.310 317.509 M60.267 319.067 C 60.120 319.213,60.013 319.708,60.028 320.167 C 60.055 320.976,60.065 320.977,60.365 320.209 C 60.535 319.774,61.107 319.297,61.637 319.149 L 62.600 318.880 61.567 318.840 C 60.998 318.818,60.413 318.920,60.267 319.067 M58.603 322.251 L 57.947 323.253 59.073 322.548 C 59.693 322.160,60.253 321.810,60.317 321.770 C 60.382 321.731,60.170 321.597,59.847 321.474 C 59.494 321.338,58.999 321.648,58.603 322.251 M53.000 327.657 C 52.340 328.285,51.665 328.799,51.500 328.800 C 51.022 328.800,51.153 329.924,51.668 330.242 C 51.978 330.434,52.054 330.317,51.892 329.895 C 51.757 329.545,51.907 329.043,52.224 328.780 C 52.632 328.441,52.800 328.433,52.800 328.751 C 52.800 328.998,52.609 329.200,52.376 329.200 C 52.143 329.200,52.078 329.403,52.232 329.651 C 52.417 329.952,52.650 329.851,52.926 329.351 C 53.155 328.938,53.600 328.408,53.914 328.174 C 54.229 327.939,54.422 327.470,54.343 327.131 C 54.231 326.649,53.938 326.764,53.000 327.657 M45.654 329.267 C 45.560 330.425,46.030 331.163,46.699 330.907 C 47.114 330.747,47.233 330.823,47.045 331.127 C 46.852 331.440,46.982 331.505,47.445 331.327 C 47.947 331.135,48.044 331.206,47.804 331.594 C 47.586 331.946,47.631 332.028,47.938 331.838 C 48.726 331.351,48.450 330.875,47.224 330.605 C 46.447 330.435,45.991 330.051,45.879 329.474 C 45.774 328.932,45.688 328.854,45.654 329.267 " stroke="none" fill="#bcb04c" fill-rule="evenodd"></path><path id="path3" d="" stroke="none" fill="#90884c" fill-rule="evenodd"></path><path id="path4" d="M331.214 47.800 C 331.258 48.020,331.260 48.290,331.217 48.400 C 330.826 49.403,330.914 50.003,331.394 49.605 C 331.950 49.144,331.974 48.241,331.445 47.712 C 331.274 47.540,331.170 47.580,331.214 47.800 M332.603 49.187 C 332.459 49.843,332.219 50.363,332.070 50.343 C 331.321 50.239,330.800 50.446,330.800 50.849 C 330.800 51.159,330.985 51.144,331.400 50.800 C 331.730 50.526,332.000 50.436,332.000 50.600 C 332.000 50.764,332.274 50.670,332.610 50.392 C 332.945 50.114,333.127 49.793,333.013 49.680 C 332.900 49.566,332.994 49.248,333.223 48.972 C 333.487 48.655,333.497 48.384,333.252 48.232 C 333.039 48.101,332.747 48.530,332.603 49.187 M310.400 69.967 C 310.400 70.389,310.274 71.062,310.121 71.462 C 309.957 71.889,310.369 71.650,311.121 70.881 C 312.661 69.306,312.678 69.200,311.400 69.200 C 310.681 69.200,310.400 69.416,310.400 69.967 M70.300 310.287 C 69.447 310.416,69.200 310.672,69.200 311.427 C 69.200 312.668,69.315 312.651,70.800 311.200 C 71.475 310.540,71.886 310.027,71.714 310.060 C 71.541 310.093,70.905 310.195,70.300 310.287 M48.555 331.273 C 48.439 331.460,48.132 331.491,47.872 331.342 C 47.613 331.194,47.540 331.226,47.712 331.414 C 48.208 331.960,49.130 331.967,49.576 331.429 C 49.873 331.072,49.817 330.933,49.376 330.933 C 49.040 330.933,48.670 331.086,48.555 331.273 M50.353 331.300 C 50.327 331.575,50.322 331.922,50.343 332.070 C 50.363 332.219,49.843 332.459,49.187 332.603 C 48.530 332.747,48.101 333.039,48.232 333.252 C 48.384 333.497,48.655 333.487,48.972 333.223 C 49.248 332.994,49.566 332.900,49.680 333.013 C 49.793 333.127,50.114 332.945,50.392 332.610 C 50.670 332.274,50.764 332.000,50.600 332.000 C 50.436 332.000,50.526 331.730,50.800 331.400 C 51.144 330.985,51.159 330.800,50.849 330.800 C 50.602 330.800,50.379 331.025,50.353 331.300 " stroke="none" fill="#905c50" fill-rule="evenodd"></path></g></svg>